<?xml version="1.0" encoding="utf-8"?>
<!-- Generator: Adobe Illustrator 19.0.0, SVG Export Plug-In . SVG Version: 6.00 Build 0)  -->
<svg version="1.1" id="layer" xmlns="http://www.w3.org/2000/svg" xmlns:xlink="http://www.w3.org/1999/xlink" x="0px" y="0px"
	 viewBox="-153 -46 652 652" style="enable-background:new -153 -46 652 652;" xml:space="preserve">
<style type="text/css">
	.st0{fill:#115737;}
</style>
<path class="st0" d="M74.5,335.4l-2-4.1H61.1v-7.3h11.1v-4H61.1v-6.8h11.3l2-4h-18v26.2H74.5z M39,335.4v-22.2h6.2l1.8-4H26.5v4h7.9
	v22.2H39z M121.5,335.4v-26.2h-4.6v10.7h-13.7v-10.7h-4.6v26.2h4.6V324h13.7v11.5H121.5z M151.7,335.4l-2-4h-11.3v-7.3h11.1v-4
	h-11.1v-6.8h11.3l2-4h-18v26.2H151.7z M182.9,335.4l-6.4-10.3c3.1-0.5,6.2-3,6.2-7.7c0-4.8-3.4-8.2-8.6-8.2h-11.5v26.2h4.6v-9.8h4.6
	l5.8,9.8L182.9,335.4L182.9,335.4z M173.5,321.6h-6.3v-8.3h6.3c2.6,0,4.5,1.7,4.5,4.2C178,319.9,176.1,321.6,173.5,321.6
	 M212.5,335.4l-2-4h-11.3v-7.3h11.1v-4h-11.1v-6.8h11.3l2-4h-18v26.2H212.5z M247.7,335.4v-26.2h-4.6v18.2l-13.4-18.2H225v26.2h4.6
	v-18.7l13.7,18.7H247.7z M281.2,312.9c-2.1-2.3-5.1-4.1-9.4-4.1c-7.6,0-13.8,5.3-13.8,13.6s6.2,13.6,13.8,13.6
	c4.6,0,8.2-1.9,10.8-4.7v-9.8h-10.5v4h5.9v4.1c-1.2,1.1-3.5,2.4-6.2,2.4c-5.2,0-9-4-9-9.5c0-5.5,3.9-9.5,9-9.5c2.7,0,5,1.3,6.4,3
	L281.2,312.9z M318.8,335.4l-10.3-26.2h-5.7l-10.3,26.2h5.2l1.9-5h12l1.9,5H318.8z M310.3,326.3h-9.4l4.7-12.5L310.3,326.3z
	 M364.7,335.4l6.6-26.2h-5.2l-4.2,19.7l-5.4-19.7h-3.7l-5.4,19.7l-4.2-19.7h-5.1l6.6,26.2h4.9l5.1-19.4l5.1,19.4H364.7z
	 M403.5,335.4l-10.3-26.2h-5.7l-10.3,26.2h5.2l1.9-5h12l1.9,5H403.5L403.5,335.4z M395.1,326.3h-9.4l4.7-12.5L395.1,326.3
	L395.1,326.3z M433.8,335.4l-11.4-13.8l10.7-12.4h-5.7l-10.3,12.5v-12.5h-4.6v26.2h4.6V327l2.3-2.7l8.8,11.1H433.8z M467.3,335.4
	L457,309.2h-5.7L441,335.4h5.2l1.9-5h12l1.9,5H467.3L467.3,335.4z M458.9,326.3h-9.4l4.7-12.5L458.9,326.3L458.9,326.3z
	 M468.6,291.7V244h-10.2v30l-22.2-30h-10.5v47.7h10.2v-31.1l22.9,31.1H468.6z M74.9,291.4l11.7-47.7H75.1l-6.4,33.4l-9.1-33.4h-8
	l-9.1,33.4l-6.4-33.4H24.7l11.7,47.7h10.9l8.4-32.7l8.4,32.7H74.9z M128.1,291.8l-3.9-8.9h-19.8V272h19.3v-8.9h-19.3V253h19.8
	l3.9-8.9h-34v47.7H128.1z M324,250.7c-3.8-4.3-9.5-7.7-17.7-7.7c-14.2,0-25.8,9.7-25.8,24.9c0,15.1,10.5,25,24.6,25
	c8.8,0,16.8-3.6,21.7-9.1v-18.5h-21.1v8.9h10.8v5.8c-2,1.8-6,3.7-10.3,3.7c-8.8,0-15.2-6.7-15.2-15.8c0-9.1,6.4-15.8,15.2-15.8
	c4.7,0,8.5,2.5,10.8,5.5L324,250.7L324,250.7z M392.9,292.6c14.5,0,25.6-10.3,25.6-24.7c0-14.4-10.6-24.7-25.1-24.7
	c-14.5,0-25,10.3-25,24.7C368.3,282.3,378.4,292.6,392.9,292.6 M393.4,283.6c-8.8,0-14.5-6.8-14.5-15.6c0-8.9,5.7-15.6,14.5-15.6
	S408,259,408,267.9C408,276.8,402.2,283.6,393.4,283.6 M353.8,291.7V253h12l3.9-8.9h-40.2v8.9h14v38.7H353.8z M209.4,244h10.2v47.7
	h-10.2V244z M164.4,291.7v-8.9h-18.1V244h-10.2v47.7H164.4z M201.1,291.7v-8.9H183V244h-10.2v47.7H201.1z M273,291.7V244h-10.2v30
	l-22.2-30h-10.5v47.7h10.2v-31.1l22.9,31.1H273z M114.1,228.3c6,0,10.3-4.4,10.3-10.4c0-6-4.2-10.4-10.3-10.4s-10.3,4.4-10.3,10.4
	S108.1,228.3,114.1,228.3 M114.1,225.2c-4.1,0-6.7-3.1-6.7-7.3c0-4.1,2.6-7.3,6.7-7.3c4,0,6.7,3.1,6.7,7.3
	C120.8,222.1,118.2,225.2,114.1,225.2 M37.1,228l7.2-20.1h-4l-5.4,16.3l-5.4-16.3h-4l7.2,20.1H37.1z M185.1,228l-7.9-20.1h-4.4
	L165,228h4l1.5-3.9h9.2l1.5,3.9H185.1L185.1,228z M178.6,221h-7.2l3.6-9.6L178.6,221z M51.4,207.9h3.5V228h-3.5V207.9z M77.1,213.2
	l2.4-2.4c-1.5-1.8-3.8-3.2-7.1-3.2c-5.9,0-10.5,4.2-10.5,10.4c0,6.2,4.6,10.4,10.5,10.4c3.3,0,5.5-1.4,7.1-3.2l-2.4-2.4
	c-1,1.4-2.8,2.5-4.7,2.5c-4,0-6.9-3-6.9-7.3s3-7.3,6.9-7.3C74.4,210.7,76.1,211.7,77.1,213.2 M94.2,228v-17H99l1.3-3.1H84.6v3.1h6.1
	v17H94.2z M146.7,228l-4.9-7.9c2.4-0.4,4.8-2.3,4.8-5.9c0-3.7-2.6-6.3-6.6-6.3h-8.8V228h3.5v-7.5h3.5l4.5,7.5
	C142.7,228,146.7,228,146.7,228z M139.5,217.4h-4.8V211h4.8c2,0,3.4,1.3,3.4,3.2C143,216.1,141.5,217.4,139.5,217.4 M154.7,207.9
	h3.5V228h-3.5V207.9z M211.3,228.3c5.8,0,8.7-3.3,8.7-8.3v-12.1h-3.6v12c0,3.2-1.8,5.3-5.1,5.3c-3.4,0-5.1-2.1-5.1-5.3v-12h-3.6V220
	C202.6,225,205.5,228.3,211.3,228.3 M245.9,228v-20.1h-3.5v13.9l-10.3-13.9h-3.6V228h3.5v-14.3l10.5,14.3H245.9z M255.2,207.9h3.5
	V228h-3.5V207.9z M278.1,228l7.2-20.1h-4l-5.4,16.3l-5.4-16.3h-4l7.2,20.1H278.1z M306.9,228l-1.6-3.1h-8.7v-5.6h8.5v-3.1h-8.5V211
	h8.7l1.6-3.1h-13.7V228H306.9z M330.9,228l-4.9-7.9c2.4-0.4,4.8-2.3,4.8-5.9c0-3.7-2.6-6.3-6.6-6.3h-8.8V228h3.5v-7.5h3.5l4.5,7.5
	C326.8,228,330.9,228,330.9,228z M323.7,217.4h-4.8V211h4.8c2,0,3.4,1.3,3.4,3.2C327.1,216.1,325.7,217.4,323.7,217.4 M350.8,212.7
	l2.3-2.4c-1.9-1.8-4.4-2.8-7.5-2.8c-4.4,0-7.3,2.6-7.3,5.9c0,7.4,11.7,4.8,11.7,9c0,1.3-1.1,2.7-4,2.7c-2.6,0-4.6-1.1-6-2.4
	l-2.3,2.3l-0.1,0.1c1.8,1.9,4.5,3.2,8.2,3.2c5.4,0,7.8-2.9,7.8-6.2c0-7.5-11.7-5.2-11.7-8.9c0-1.5,1.3-2.5,3.4-2.5
	C347.3,210.7,349.3,211.4,350.8,212.7 M361.9,207.9h3.5V228h-3.5V207.9z M382.6,228v-17h4.8l1.3-3.1H373v3.1h6.1v17H382.6z M404,228
	v-8.3l7.1-11.7h-4l-4.8,8.6l-4.8-8.6h-4l7.1,11.7v8.3H404z M435.8,228.3c6,0,10.3-4.4,10.3-10.4c0-6-4.2-10.4-10.3-10.4
	c-6,0-10.3,4.4-10.3,10.4C425.6,223.9,429.8,228.3,435.8,228.3 M435.8,225.2c-4.1,0-6.7-3.1-6.7-7.3c0-4.1,2.6-7.3,6.7-7.3
	c4,0,6.7,3.1,6.7,7.3C442.5,222.1,439.9,225.2,435.8,225.2 M457.5,228v-8.7h8.4v-3.1h-8.4V211h8.7l1.6-3.1H454V228L457.5,228z
	 M-109.2,304.4c5.9-0.1,8.5-4.4,14.3-4.5c6.3-0.1,9.2,4.6,15.5,4.6c6.3,0,9.2-4.6,15.5-4.6s9.2,4.6,15.5,4.6s9.2-4.7,15.5-4.6
	c5.9,0.1,8.4,4.5,14.3,4.5c0,0,0,0,0.1,0c-13.9,15.1-36.9,27.2-45.4,30.9c-6.7-2.7-32.1-15.2-46.9-31.3
	C-110.4,304.2-109.8,304.4-109.2,304.4 M-15.4,274.6l-15.5,15.6l-15.5-15.6C-46.4,274.6-15.4,274.6-15.4,274.6z M-62.9,256.8h31
	l-15.5,15.6C-47.4,272.5-62.9,256.8-62.9,256.8z M-48.4,274.6l-15.5,15.6l-15.5-15.6C-79.4,274.6-48.4,274.6-48.4,274.6z
	 M-79.4,239.1h31l-15.5,15.6C-63.9,254.8-79.4,239.1-79.4,239.1z M-81.5,274.6L-97,290.2l-15.5-15.6H-81.5z M-95.9,256.8h31
	l-15.5,15.6C-80.5,272.5-95.9,256.8-95.9,256.8z M-7.4,213.2v16.1h-114.5v-16.1H-7.4z M-131.4,203.7l0,77.8
	c0,35.1,60.8,62.1,66.4,63.6l1.5,0.4l1.4-0.6c0.6-0.3,64.2-27.8,64.2-63.4v-77.8H-131.4z"/>
</svg>
