<svg xmlns="http://www.w3.org/2000/svg" xmlns:xlink="http://www.w3.org/1999/xlink" width="500" zoomAndPan="magnify" viewBox="0 0 375 374.999991" height="500" preserveAspectRatio="xMidYMid meet" version="1.0"><defs><clipPath id="8f7d0b80a0"><path d="M 35.964844 112.117188 L 111.714844 112.117188 L 111.714844 262.117188 L 35.964844 262.117188 Z M 35.964844 112.117188 " clip-rule="nonzero"/></clipPath><clipPath id="fedcee5ab6"><path d="M 111.730469 112.882812 L 187.480469 112.882812 L 187.480469 262.882812 L 111.730469 262.882812 Z M 111.730469 112.882812 " clip-rule="nonzero"/></clipPath><clipPath id="daa1032701"><path d="M 187.5 112.882812 L 263.25 112.882812 L 263.25 262.882812 L 187.5 262.882812 Z M 187.5 112.882812 " clip-rule="nonzero"/></clipPath><clipPath id="4ee8237f8d"><path d="M 263.269531 112.882812 L 339.019531 112.882812 L 339.019531 262.882812 L 263.269531 262.882812 Z M 263.269531 112.882812 " clip-rule="nonzero"/></clipPath></defs><g clip-path="url(#8f7d0b80a0)"><path fill="#00e8da" d="M 111.730469 187.117188 C 111.730469 188.34375 111.703125 189.570312 111.640625 190.796875 C 111.582031 192.023438 111.492188 193.246094 111.371094 194.46875 C 111.25 195.6875 111.101562 196.90625 110.917969 198.121094 C 110.738281 199.335938 110.53125 200.542969 110.289062 201.746094 C 110.050781 202.953125 109.78125 204.148438 109.484375 205.339844 C 109.1875 206.53125 108.859375 207.710938 108.503906 208.886719 C 108.144531 210.0625 107.761719 211.226562 107.347656 212.382812 C 106.933594 213.539062 106.492188 214.683594 106.023438 215.816406 C 105.554688 216.949219 105.054688 218.074219 104.53125 219.183594 C 104.007812 220.292969 103.453125 221.386719 102.875 222.46875 C 102.296875 223.554688 101.691406 224.621094 101.0625 225.671875 C 100.429688 226.726562 99.773438 227.761719 99.089844 228.785156 C 98.410156 229.804688 97.703125 230.808594 96.972656 231.792969 C 96.242188 232.777344 95.484375 233.746094 94.707031 234.695312 C 93.929688 235.644531 93.128906 236.574219 92.304688 237.484375 C 91.480469 238.390625 90.632812 239.28125 89.765625 240.148438 C 88.898438 241.015625 88.007812 241.863281 87.097656 242.6875 C 86.1875 243.511719 85.261719 244.3125 84.3125 245.089844 C 83.363281 245.871094 82.394531 246.625 81.410156 247.355469 C 80.421875 248.085938 79.417969 248.792969 78.398438 249.476562 C 77.378906 250.15625 76.34375 250.8125 75.289062 251.445312 C 74.238281 252.078125 73.167969 252.679688 72.085938 253.261719 C 71.003906 253.839844 69.90625 254.390625 68.796875 254.914062 C 67.6875 255.441406 66.566406 255.9375 65.433594 256.40625 C 64.296875 256.875 63.152344 257.316406 62 257.730469 C 60.84375 258.144531 59.675781 258.53125 58.503906 258.886719 C 57.328125 259.242188 56.144531 259.570312 54.953125 259.867188 C 53.765625 260.167969 52.566406 260.433594 51.363281 260.675781 C 50.160156 260.914062 48.949219 261.125 47.738281 261.304688 C 46.523438 261.484375 45.304688 261.632812 44.082031 261.753906 C 42.859375 261.875 41.636719 261.964844 40.410156 262.027344 C 39.1875 262.085938 37.960938 262.117188 36.730469 262.117188 C 35.503906 262.117188 34.277344 262.085938 33.050781 262.027344 C 31.824219 261.964844 30.601562 261.875 29.378906 261.753906 C 28.160156 261.632812 26.941406 261.484375 25.726562 261.304688 C 24.511719 261.125 23.304688 260.914062 22.101562 260.675781 C 20.894531 260.433594 19.699219 260.167969 18.507812 259.867188 C 17.316406 259.570312 16.136719 259.242188 14.960938 258.886719 C 13.785156 258.53125 12.621094 258.144531 11.464844 257.730469 C 10.308594 257.316406 9.164062 256.875 8.03125 256.40625 C 6.894531 255.9375 5.773438 255.441406 4.664062 254.914062 C 3.554688 254.390625 2.460938 253.839844 1.375 253.261719 C 0.292969 252.679688 -0.773438 252.078125 -1.824219 251.445312 C -2.878906 250.8125 -3.914062 250.15625 -4.9375 249.476562 C -5.957031 248.792969 -6.960938 248.085938 -7.945312 247.355469 C -8.933594 246.625 -9.898438 245.871094 -10.847656 245.089844 C -11.796875 244.3125 -12.726562 243.511719 -13.636719 242.6875 C -14.542969 241.863281 -15.433594 241.015625 -16.300781 240.148438 C -17.167969 239.28125 -18.015625 238.390625 -18.839844 237.484375 C -19.664062 236.574219 -20.464844 235.644531 -21.246094 234.695312 C -22.023438 233.746094 -22.777344 232.777344 -23.507812 231.792969 C -24.238281 230.808594 -24.945312 229.804688 -25.628906 228.785156 C -26.3125 227.761719 -26.96875 226.726562 -27.597656 225.671875 C -28.230469 224.621094 -28.832031 223.554688 -29.414062 222.46875 C -29.992188 221.386719 -30.542969 220.292969 -31.066406 219.183594 C -31.59375 218.074219 -32.089844 216.949219 -32.558594 215.816406 C -33.027344 214.683594 -33.472656 213.539062 -33.882812 212.382812 C -34.296875 211.226562 -34.683594 210.0625 -35.039062 208.886719 C -35.394531 207.710938 -35.722656 206.53125 -36.019531 205.339844 C -36.320312 204.148438 -36.585938 202.953125 -36.828125 201.746094 C -37.066406 200.542969 -37.277344 199.335938 -37.457031 198.121094 C -37.636719 196.90625 -37.785156 195.6875 -37.90625 194.46875 C -38.027344 193.246094 -38.117188 192.023438 -38.179688 190.796875 C -38.238281 189.570312 -38.269531 188.34375 -38.269531 187.117188 C -38.269531 185.886719 -38.238281 184.660156 -38.179688 183.4375 C -38.117188 182.210938 -38.027344 180.984375 -37.90625 179.765625 C -37.785156 178.542969 -37.636719 177.324219 -37.457031 176.109375 C -37.277344 174.898438 -37.066406 173.6875 -36.828125 172.484375 C -36.585938 171.28125 -36.320312 170.082031 -36.019531 168.890625 C -35.722656 167.703125 -35.394531 166.519531 -35.039062 165.34375 C -34.683594 164.167969 -34.296875 163.003906 -33.882812 161.847656 C -33.472656 160.691406 -33.027344 159.546875 -32.558594 158.414062 C -32.089844 157.28125 -31.59375 156.160156 -31.066406 155.050781 C -30.542969 153.941406 -29.992188 152.84375 -29.414062 151.761719 C -28.832031 150.679688 -28.230469 149.609375 -27.597656 148.558594 C -26.96875 147.503906 -26.3125 146.46875 -25.628906 145.449219 C -24.945312 144.425781 -24.238281 143.425781 -23.507812 142.4375 C -22.777344 141.453125 -22.023438 140.484375 -21.246094 139.535156 C -20.464844 138.585938 -19.664062 137.660156 -18.839844 136.75 C -18.015625 135.839844 -17.167969 134.949219 -16.300781 134.082031 C -15.433594 133.214844 -14.542969 132.367188 -13.636719 131.542969 C -12.726562 130.71875 -11.796875 129.917969 -10.847656 129.140625 C -9.898438 128.359375 -8.933594 127.605469 -7.945312 126.875 C -6.960938 126.144531 -5.957031 125.4375 -4.9375 124.753906 C -3.914062 124.074219 -2.878906 123.417969 -1.824219 122.785156 C -0.773438 122.15625 0.292969 121.550781 1.375 120.972656 C 2.460938 120.394531 3.554688 119.839844 4.664062 119.316406 C 5.773438 118.792969 6.894531 118.292969 8.03125 117.824219 C 9.164062 117.355469 10.308594 116.914062 11.464844 116.5 C 12.621094 116.085938 13.785156 115.703125 14.960938 115.34375 C 16.136719 114.988281 17.316406 114.660156 18.507812 114.363281 C 19.699219 114.066406 20.894531 113.796875 22.101562 113.558594 C 23.304688 113.316406 24.511719 113.109375 25.726562 112.925781 C 26.941406 112.746094 28.160156 112.597656 29.378906 112.476562 C 30.601562 112.355469 31.824219 112.265625 33.050781 112.207031 C 34.277344 112.144531 35.503906 112.117188 36.730469 112.117188 C 37.960938 112.117188 39.1875 112.144531 40.410156 112.207031 C 41.636719 112.265625 42.859375 112.355469 44.082031 112.476562 C 45.304688 112.597656 46.523438 112.746094 47.738281 112.925781 C 48.949219 113.109375 50.160156 113.316406 51.363281 113.558594 C 52.566406 113.796875 53.765625 114.066406 54.953125 114.363281 C 56.144531 114.660156 57.328125 114.988281 58.503906 115.34375 C 59.675781 115.703125 60.84375 116.085938 62 116.5 C 63.152344 116.914062 64.296875 117.355469 65.433594 117.824219 C 66.566406 118.292969 67.6875 118.792969 68.796875 119.316406 C 69.90625 119.839844 71.003906 120.394531 72.085938 120.972656 C 73.167969 121.550781 74.238281 122.15625 75.289062 122.785156 C 76.34375 123.417969 77.378906 124.074219 78.398438 124.753906 C 79.417969 125.4375 80.421875 126.144531 81.410156 126.875 C 82.394531 127.605469 83.363281 128.359375 84.3125 129.140625 C 85.261719 129.917969 86.1875 130.71875 87.097656 131.542969 C 88.007812 132.367188 88.898438 133.214844 89.765625 134.082031 C 90.632812 134.949219 91.480469 135.839844 92.304688 136.75 C 93.128906 137.660156 93.929688 138.585938 94.707031 139.535156 C 95.484375 140.484375 96.242188 141.453125 96.972656 142.4375 C 97.703125 143.425781 98.410156 144.425781 99.089844 145.449219 C 99.773438 146.46875 100.429688 147.503906 101.0625 148.558594 C 101.691406 149.609375 102.296875 150.679688 102.875 151.761719 C 103.453125 152.84375 104.007812 153.941406 104.53125 155.050781 C 105.054688 156.160156 105.554688 157.28125 106.023438 158.414062 C 106.492188 159.546875 106.933594 160.691406 107.347656 161.847656 C 107.761719 163.003906 108.144531 164.167969 108.503906 165.34375 C 108.859375 166.519531 109.1875 167.703125 109.484375 168.890625 C 109.78125 170.082031 110.050781 171.28125 110.289062 172.484375 C 110.53125 173.6875 110.738281 174.898438 110.917969 176.109375 C 111.101562 177.324219 111.25 178.542969 111.371094 179.765625 C 111.492188 180.984375 111.582031 182.210938 111.640625 183.4375 C 111.703125 184.660156 111.730469 185.886719 111.730469 187.117188 Z M 111.730469 187.117188 " fill-opacity="1" fill-rule="nonzero"/></g><g clip-path="url(#fedcee5ab6)"><path fill="#00e8da" d="M 187.5 187.882812 C 187.5 189.113281 187.46875 190.339844 187.410156 191.5625 C 187.347656 192.789062 187.257812 194.015625 187.140625 195.234375 C 187.019531 196.457031 186.867188 197.675781 186.6875 198.890625 C 186.507812 200.101562 186.296875 201.3125 186.058594 202.515625 C 185.820312 203.71875 185.550781 204.917969 185.253906 206.109375 C 184.953125 207.296875 184.625 208.480469 184.269531 209.65625 C 183.914062 210.832031 183.527344 211.996094 183.117188 213.152344 C 182.703125 214.304688 182.261719 215.453125 181.789062 216.585938 C 181.320312 217.71875 180.824219 218.839844 180.300781 219.949219 C 179.773438 221.058594 179.222656 222.15625 178.644531 223.238281 C 178.066406 224.320312 177.460938 225.390625 176.828125 226.441406 C 176.199219 227.496094 175.542969 228.53125 174.859375 229.550781 C 174.179688 230.574219 173.472656 231.574219 172.742188 232.5625 C 172.007812 233.546875 171.253906 234.515625 170.476562 235.464844 C 169.695312 236.414062 168.894531 237.339844 168.070312 238.25 C 167.246094 239.160156 166.402344 240.050781 165.53125 240.917969 C 164.664062 241.785156 163.777344 242.632812 162.867188 243.457031 C 161.957031 244.28125 161.027344 245.082031 160.078125 245.859375 C 159.128906 246.636719 158.164062 247.394531 157.175781 248.125 C 156.191406 248.855469 155.1875 249.5625 154.167969 250.246094 C 153.148438 250.925781 152.109375 251.582031 151.058594 252.214844 C 150.003906 252.84375 148.9375 253.449219 147.855469 254.027344 C 146.773438 254.605469 145.675781 255.160156 144.566406 255.683594 C 143.457031 256.207031 142.335938 256.707031 141.203125 257.175781 C 140.066406 257.644531 138.921875 258.085938 137.765625 258.5 C 136.609375 258.914062 135.445312 259.296875 134.269531 259.65625 C 133.097656 260.011719 131.914062 260.339844 130.722656 260.636719 C 129.53125 260.933594 128.335938 261.203125 127.132812 261.441406 C 125.929688 261.683594 124.71875 261.890625 123.503906 262.074219 C 122.289062 262.253906 121.074219 262.402344 119.851562 262.523438 C 118.628906 262.644531 117.40625 262.734375 116.179688 262.792969 C 114.953125 262.855469 113.726562 262.882812 112.5 262.882812 C 111.273438 262.882812 110.046875 262.855469 108.820312 262.792969 C 107.59375 262.734375 106.371094 262.644531 105.148438 262.523438 C 103.925781 262.402344 102.710938 262.253906 101.496094 262.074219 C 100.28125 261.890625 99.070312 261.683594 97.867188 261.441406 C 96.664062 261.203125 95.46875 260.933594 94.277344 260.636719 C 93.085938 260.339844 91.902344 260.011719 90.730469 259.65625 C 89.554688 259.296875 88.390625 258.914062 87.234375 258.5 C 86.078125 258.085938 84.933594 257.644531 83.796875 257.175781 C 82.664062 256.707031 81.542969 256.207031 80.433594 255.683594 C 79.324219 255.160156 78.226562 254.605469 77.144531 254.027344 C 76.0625 253.449219 74.996094 252.84375 73.941406 252.214844 C 72.890625 251.582031 71.851562 250.925781 70.832031 250.246094 C 69.8125 249.5625 68.808594 248.855469 67.824219 248.125 C 66.835938 247.394531 65.871094 246.636719 64.921875 245.859375 C 63.972656 245.082031 63.042969 244.28125 62.132812 243.457031 C 61.222656 242.632812 60.335938 241.785156 59.46875 240.917969 C 58.597656 240.050781 57.753906 239.160156 56.929688 238.25 C 56.105469 237.339844 55.304688 236.414062 54.523438 235.464844 C 53.746094 234.515625 52.992188 233.546875 52.257812 232.5625 C 51.527344 231.574219 50.820312 230.574219 50.140625 229.550781 C 49.457031 228.53125 48.800781 227.496094 48.171875 226.441406 C 47.539062 225.390625 46.933594 224.320312 46.355469 223.238281 C 45.777344 222.15625 45.226562 221.058594 44.699219 219.949219 C 44.175781 218.839844 43.679688 217.71875 43.210938 216.585938 C 42.738281 215.453125 42.296875 214.304688 41.882812 213.152344 C 41.46875 211.996094 41.085938 210.832031 40.730469 209.65625 C 40.375 208.480469 40.046875 207.296875 39.746094 206.109375 C 39.449219 204.917969 39.179688 203.71875 38.941406 202.515625 C 38.703125 201.3125 38.492188 200.101562 38.3125 198.890625 C 38.132812 197.675781 37.980469 196.457031 37.859375 195.234375 C 37.742188 194.015625 37.652344 192.789062 37.589844 191.5625 C 37.53125 190.339844 37.5 189.113281 37.5 187.882812 C 37.5 186.65625 37.53125 185.429688 37.589844 184.203125 C 37.652344 182.976562 37.742188 181.753906 37.859375 180.53125 C 37.980469 179.3125 38.132812 178.09375 38.3125 176.878906 C 38.492188 175.664062 38.703125 174.457031 38.941406 173.253906 C 39.179688 172.046875 39.449219 170.851562 39.746094 169.660156 C 40.046875 168.46875 40.375 167.289062 40.730469 166.113281 C 41.085938 164.9375 41.46875 163.773438 41.882812 162.617188 C 42.296875 161.460938 42.738281 160.316406 43.210938 159.183594 C 43.679688 158.050781 44.175781 156.925781 44.699219 155.816406 C 45.226562 154.707031 45.777344 153.613281 46.355469 152.53125 C 46.933594 151.445312 47.539062 150.378906 48.171875 149.328125 C 48.800781 148.273438 49.457031 147.238281 50.140625 146.214844 C 50.820312 145.195312 51.527344 144.191406 52.257812 143.207031 C 52.992188 142.222656 53.746094 141.253906 54.523438 140.304688 C 55.304688 139.355469 56.105469 138.425781 56.929688 137.515625 C 57.753906 136.609375 58.597656 135.71875 59.46875 134.851562 C 60.335938 133.984375 61.222656 133.136719 62.132812 132.3125 C 63.042969 131.488281 63.972656 130.6875 64.921875 129.910156 C 65.871094 129.128906 66.835938 128.375 67.824219 127.644531 C 68.808594 126.914062 69.8125 126.207031 70.832031 125.523438 C 71.851562 124.84375 72.890625 124.1875 73.941406 123.554688 C 74.996094 122.921875 76.0625 122.320312 77.144531 121.738281 C 78.226562 121.160156 79.324219 120.609375 80.433594 120.085938 C 81.542969 119.558594 82.664062 119.0625 83.796875 118.59375 C 84.933594 118.125 86.078125 117.683594 87.234375 117.269531 C 88.390625 116.855469 89.554688 116.46875 90.730469 116.113281 C 91.902344 115.757812 93.085938 115.429688 94.277344 115.132812 C 95.46875 114.832031 96.664062 114.566406 97.867188 114.324219 C 99.070312 114.085938 100.28125 113.875 101.496094 113.695312 C 102.710938 113.515625 103.925781 113.367188 105.148438 113.246094 C 106.371094 113.125 107.59375 113.035156 108.820312 112.972656 C 110.046875 112.914062 111.273438 112.882812 112.5 112.882812 C 113.726562 112.882812 114.953125 112.914062 116.179688 112.972656 C 117.40625 113.035156 118.628906 113.125 119.851562 113.246094 C 121.074219 113.367188 122.289062 113.515625 123.503906 113.695312 C 124.71875 113.875 125.929688 114.085938 127.132812 114.324219 C 128.335938 114.566406 129.53125 114.832031 130.722656 115.132812 C 131.914062 115.429688 133.097656 115.757812 134.269531 116.113281 C 135.445312 116.46875 136.609375 116.855469 137.765625 117.269531 C 138.921875 117.683594 140.066406 118.125 141.203125 118.59375 C 142.335938 119.0625 143.457031 119.558594 144.566406 120.085938 C 145.675781 120.609375 146.773438 121.160156 147.855469 121.738281 C 148.9375 122.320312 150.003906 122.921875 151.058594 123.554688 C 152.109375 124.1875 153.148438 124.84375 154.167969 125.523438 C 155.1875 126.207031 156.191406 126.914062 157.175781 127.644531 C 158.164062 128.375 159.128906 129.128906 160.078125 129.910156 C 161.027344 130.6875 161.957031 131.488281 162.867188 132.3125 C 163.777344 133.136719 164.664062 133.984375 165.53125 134.851562 C 166.402344 135.71875 167.246094 136.609375 168.070312 137.515625 C 168.894531 138.425781 169.695312 139.355469 170.476562 140.304688 C 171.253906 141.253906 172.007812 142.222656 172.742188 143.207031 C 173.472656 144.191406 174.179688 145.195312 174.859375 146.214844 C 175.542969 147.238281 176.199219 148.273438 176.828125 149.328125 C 177.460938 150.378906 178.066406 151.445312 178.644531 152.53125 C 179.222656 153.613281 179.773438 154.707031 180.300781 155.816406 C 180.824219 156.925781 181.320312 158.050781 181.789062 159.183594 C 182.261719 160.316406 182.703125 161.460938 183.117188 162.617188 C 183.527344 163.773438 183.914062 164.9375 184.269531 166.113281 C 184.625 167.289062 184.953125 168.46875 185.253906 169.660156 C 185.550781 170.851562 185.820312 172.046875 186.058594 173.253906 C 186.296875 174.457031 186.507812 175.664062 186.6875 176.878906 C 186.867188 178.09375 187.019531 179.3125 187.140625 180.53125 C 187.257812 181.753906 187.347656 182.976562 187.410156 184.203125 C 187.46875 185.429688 187.5 186.65625 187.5 187.882812 Z M 187.5 187.882812 " fill-opacity="1" fill-rule="nonzero"/></g><g clip-path="url(#daa1032701)"><path fill="#00e8da" d="M 263.269531 187.882812 C 263.269531 189.113281 263.238281 190.339844 263.179688 191.5625 C 263.117188 192.789062 263.027344 194.015625 262.90625 195.234375 C 262.785156 196.457031 262.636719 197.675781 262.457031 198.890625 C 262.277344 200.101562 262.066406 201.3125 261.828125 202.515625 C 261.585938 203.71875 261.320312 204.917969 261.019531 206.109375 C 260.722656 207.296875 260.394531 208.480469 260.039062 209.65625 C 259.683594 210.832031 259.296875 211.996094 258.882812 213.152344 C 258.46875 214.304688 258.027344 215.453125 257.558594 216.585938 C 257.089844 217.71875 256.59375 218.839844 256.066406 219.949219 C 255.542969 221.058594 254.992188 222.15625 254.414062 223.238281 C 253.832031 224.320312 253.230469 225.390625 252.597656 226.441406 C 251.96875 227.496094 251.3125 228.53125 250.628906 229.550781 C 249.945312 230.574219 249.238281 231.574219 248.507812 232.5625 C 247.777344 233.546875 247.023438 234.515625 246.246094 235.464844 C 245.464844 236.414062 244.664062 237.339844 243.839844 238.25 C 243.015625 239.160156 242.167969 240.050781 241.300781 240.917969 C 240.433594 241.785156 239.542969 242.632812 238.636719 243.457031 C 237.726562 244.28125 236.796875 245.082031 235.847656 245.859375 C 234.898438 246.636719 233.933594 247.394531 232.945312 248.125 C 231.960938 248.855469 230.957031 249.5625 229.9375 250.246094 C 228.914062 250.925781 227.878906 251.582031 226.824219 252.214844 C 225.773438 252.84375 224.707031 253.449219 223.625 254.027344 C 222.539062 254.605469 221.445312 255.160156 220.335938 255.683594 C 219.226562 256.207031 218.105469 256.707031 216.96875 257.175781 C 215.835938 257.644531 214.691406 258.085938 213.535156 258.5 C 212.378906 258.914062 211.214844 259.296875 210.039062 259.65625 C 208.863281 260.011719 207.683594 260.339844 206.492188 260.636719 C 205.300781 260.933594 204.105469 261.203125 202.898438 261.441406 C 201.695312 261.683594 200.488281 261.890625 199.273438 262.074219 C 198.058594 262.253906 196.839844 262.402344 195.621094 262.523438 C 194.398438 262.644531 193.175781 262.734375 191.949219 262.792969 C 190.722656 262.855469 189.496094 262.882812 188.269531 262.882812 C 187.039062 262.882812 185.8125 262.855469 184.589844 262.792969 C 183.363281 262.734375 182.136719 262.644531 180.917969 262.523438 C 179.695312 262.402344 178.476562 262.253906 177.261719 262.074219 C 176.050781 261.890625 174.839844 261.683594 173.636719 261.441406 C 172.433594 261.203125 171.234375 260.933594 170.042969 260.636719 C 168.855469 260.339844 167.671875 260.011719 166.496094 259.65625 C 165.324219 259.296875 164.15625 258.914062 163 258.5 C 161.847656 258.085938 160.699219 257.644531 159.566406 257.175781 C 158.433594 256.707031 157.3125 256.207031 156.203125 255.683594 C 155.09375 255.160156 153.996094 254.605469 152.914062 254.027344 C 151.832031 253.449219 150.761719 252.84375 149.710938 252.214844 C 148.65625 251.582031 147.621094 250.925781 146.601562 250.246094 C 145.582031 249.5625 144.578125 248.855469 143.589844 248.125 C 142.605469 247.394531 141.636719 246.636719 140.6875 245.859375 C 139.738281 245.082031 138.8125 244.28125 137.902344 243.457031 C 136.992188 242.632812 136.101562 241.785156 135.234375 240.917969 C 134.367188 240.050781 133.519531 239.160156 132.695312 238.25 C 131.871094 237.339844 131.070312 236.414062 130.292969 235.464844 C 129.515625 234.515625 128.757812 233.546875 128.027344 232.5625 C 127.296875 231.574219 126.589844 230.574219 125.910156 229.550781 C 125.226562 228.53125 124.570312 227.496094 123.9375 226.441406 C 123.308594 225.390625 122.703125 224.320312 122.125 223.238281 C 121.546875 222.15625 120.992188 221.058594 120.46875 219.949219 C 119.945312 218.839844 119.445312 217.71875 118.976562 216.585938 C 118.507812 215.453125 118.066406 214.304688 117.652344 213.152344 C 117.238281 211.996094 116.855469 210.832031 116.496094 209.65625 C 116.140625 208.480469 115.8125 207.296875 115.515625 206.109375 C 115.21875 204.917969 114.949219 203.71875 114.710938 202.515625 C 114.46875 201.3125 114.261719 200.101562 114.082031 198.890625 C 113.898438 197.675781 113.75 196.457031 113.628906 195.234375 C 113.507812 194.015625 113.417969 192.789062 113.359375 191.5625 C 113.296875 190.339844 113.269531 189.113281 113.269531 187.882812 C 113.269531 186.65625 113.296875 185.429688 113.359375 184.203125 C 113.417969 182.976562 113.507812 181.753906 113.628906 180.53125 C 113.75 179.3125 113.898438 178.09375 114.082031 176.878906 C 114.261719 175.664062 114.46875 174.457031 114.710938 173.253906 C 114.949219 172.046875 115.21875 170.851562 115.515625 169.660156 C 115.8125 168.46875 116.140625 167.289062 116.496094 166.113281 C 116.855469 164.9375 117.238281 163.773438 117.652344 162.617188 C 118.066406 161.460938 118.507812 160.316406 118.976562 159.183594 C 119.445312 158.050781 119.945312 156.925781 120.46875 155.816406 C 120.992188 154.707031 121.546875 153.613281 122.125 152.53125 C 122.703125 151.445312 123.308594 150.378906 123.9375 149.328125 C 124.570312 148.273438 125.226562 147.238281 125.910156 146.214844 C 126.589844 145.195312 127.296875 144.191406 128.027344 143.207031 C 128.757812 142.222656 129.515625 141.253906 130.292969 140.304688 C 131.070312 139.355469 131.871094 138.425781 132.695312 137.515625 C 133.519531 136.609375 134.367188 135.71875 135.234375 134.851562 C 136.101562 133.984375 136.992188 133.136719 137.902344 132.3125 C 138.8125 131.488281 139.738281 130.6875 140.6875 129.910156 C 141.636719 129.128906 142.605469 128.375 143.589844 127.644531 C 144.578125 126.914062 145.582031 126.207031 146.601562 125.523438 C 147.621094 124.84375 148.65625 124.1875 149.710938 123.554688 C 150.761719 122.921875 151.832031 122.320312 152.914062 121.738281 C 153.996094 121.160156 155.09375 120.609375 156.203125 120.085938 C 157.3125 119.558594 158.433594 119.0625 159.566406 118.59375 C 160.703125 118.125 161.847656 117.683594 163 117.269531 C 164.15625 116.855469 165.324219 116.46875 166.496094 116.113281 C 167.671875 115.757812 168.855469 115.429688 170.042969 115.132812 C 171.234375 114.832031 172.433594 114.566406 173.636719 114.324219 C 174.839844 114.085938 176.050781 113.875 177.261719 113.695312 C 178.476562 113.515625 179.695312 113.367188 180.917969 113.246094 C 182.136719 113.125 183.363281 113.035156 184.589844 112.972656 C 185.8125 112.914062 187.039062 112.882812 188.269531 112.882812 C 189.496094 112.882812 190.722656 112.914062 191.949219 112.972656 C 193.175781 113.035156 194.398438 113.125 195.621094 113.246094 C 196.839844 113.367188 198.058594 113.515625 199.273438 113.695312 C 200.488281 113.875 201.695312 114.085938 202.898438 114.324219 C 204.105469 114.566406 205.300781 114.832031 206.492188 115.132812 C 207.683594 115.429688 208.863281 115.757812 210.039062 116.113281 C 211.214844 116.46875 212.378906 116.855469 213.535156 117.269531 C 214.691406 117.683594 215.835938 118.125 216.96875 118.59375 C 218.105469 119.0625 219.226562 119.558594 220.335938 120.085938 C 221.445312 120.609375 222.539062 121.160156 223.625 121.738281 C 224.707031 122.320312 225.773438 122.921875 226.824219 123.554688 C 227.878906 124.1875 228.914062 124.84375 229.9375 125.523438 C 230.957031 126.207031 231.960938 126.914062 232.945312 127.644531 C 233.933594 128.375 234.898438 129.128906 235.847656 129.910156 C 236.796875 130.6875 237.726562 131.488281 238.636719 132.3125 C 239.542969 133.136719 240.433594 133.984375 241.300781 134.851562 C 242.167969 135.71875 243.015625 136.609375 243.839844 137.515625 C 244.664062 138.425781 245.464844 139.355469 246.246094 140.304688 C 247.023438 141.253906 247.777344 142.222656 248.507812 143.207031 C 249.238281 144.191406 249.945312 145.195312 250.628906 146.214844 C 251.3125 147.238281 251.96875 148.273438 252.597656 149.328125 C 253.230469 150.378906 253.832031 151.445312 254.414062 152.53125 C 254.992188 153.613281 255.542969 154.707031 256.066406 155.816406 C 256.59375 156.925781 257.089844 158.050781 257.558594 159.183594 C 258.027344 160.316406 258.46875 161.460938 258.882812 162.617188 C 259.296875 163.773438 259.683594 164.9375 260.039062 166.113281 C 260.394531 167.289062 260.722656 168.46875 261.019531 169.660156 C 261.320312 170.851562 261.585938 172.046875 261.828125 173.253906 C 262.066406 174.457031 262.277344 175.664062 262.457031 176.878906 C 262.636719 178.09375 262.785156 179.3125 262.90625 180.53125 C 263.027344 181.753906 263.117188 182.976562 263.179688 184.203125 C 263.238281 185.429688 263.269531 186.65625 263.269531 187.882812 Z M 263.269531 187.882812 " fill-opacity="1" fill-rule="nonzero"/></g><g clip-path="url(#4ee8237f8d)"><path fill="#00e8da" d="M 339.035156 187.882812 C 339.035156 189.113281 339.007812 190.339844 338.945312 191.5625 C 338.886719 192.789062 338.796875 194.015625 338.675781 195.234375 C 338.554688 196.457031 338.40625 197.675781 338.226562 198.890625 C 338.046875 200.101562 337.835938 201.3125 337.597656 202.515625 C 337.355469 203.71875 337.085938 204.917969 336.789062 206.109375 C 336.492188 207.296875 336.164062 208.480469 335.808594 209.65625 C 335.449219 210.832031 335.066406 211.996094 334.652344 213.152344 C 334.238281 214.304688 333.796875 215.453125 333.328125 216.585938 C 332.859375 217.71875 332.359375 218.839844 331.835938 219.949219 C 331.3125 221.058594 330.757812 222.15625 330.179688 223.238281 C 329.601562 224.320312 328.996094 225.390625 328.367188 226.441406 C 327.734375 227.496094 327.078125 228.53125 326.398438 229.550781 C 325.714844 230.574219 325.007812 231.574219 324.277344 232.5625 C 323.546875 233.546875 322.792969 234.515625 322.011719 235.464844 C 321.234375 236.414062 320.433594 237.339844 319.609375 238.25 C 318.785156 239.160156 317.9375 240.050781 317.070312 240.917969 C 316.203125 241.785156 315.3125 242.632812 314.402344 243.457031 C 313.496094 244.28125 312.566406 245.082031 311.617188 245.859375 C 310.667969 246.636719 309.699219 247.394531 308.714844 248.125 C 307.726562 248.855469 306.726562 249.5625 305.703125 250.246094 C 304.683594 250.925781 303.648438 251.582031 302.59375 252.214844 C 301.542969 252.84375 300.472656 253.449219 299.390625 254.027344 C 298.308594 254.605469 297.214844 255.160156 296.101562 255.683594 C 294.992188 256.207031 293.871094 256.707031 292.738281 257.175781 C 291.605469 257.644531 290.460938 258.085938 289.304688 258.5 C 288.148438 258.914062 286.984375 259.296875 285.808594 259.65625 C 284.632812 260.011719 283.449219 260.339844 282.261719 260.636719 C 281.070312 260.933594 279.871094 261.203125 278.667969 261.441406 C 277.464844 261.683594 276.253906 261.890625 275.042969 262.074219 C 273.828125 262.253906 272.609375 262.402344 271.386719 262.523438 C 270.167969 262.644531 268.941406 262.734375 267.71875 262.792969 C 266.492188 262.855469 265.265625 262.882812 264.035156 262.882812 C 262.808594 262.882812 261.582031 262.855469 260.355469 262.792969 C 259.132812 262.734375 257.90625 262.644531 256.6875 262.523438 C 255.464844 262.402344 254.246094 262.253906 253.03125 262.074219 C 251.816406 261.890625 250.609375 261.683594 249.40625 261.441406 C 248.203125 261.203125 247.003906 260.933594 245.8125 260.636719 C 244.621094 260.339844 243.441406 260.011719 242.265625 259.65625 C 241.089844 259.296875 239.925781 258.914062 238.769531 258.5 C 237.613281 258.085938 236.46875 257.644531 235.335938 257.175781 C 234.203125 256.707031 233.078125 256.207031 231.96875 255.683594 C 230.859375 255.160156 229.765625 254.605469 228.683594 254.027344 C 227.601562 253.449219 226.53125 252.84375 225.480469 252.214844 C 224.425781 251.582031 223.390625 250.925781 222.367188 250.246094 C 221.347656 249.5625 220.34375 248.855469 219.359375 248.125 C 218.375 247.394531 217.40625 246.636719 216.457031 245.859375 C 215.507812 245.082031 214.578125 244.28125 213.671875 243.457031 C 212.761719 242.632812 211.871094 241.785156 211.003906 240.917969 C 210.136719 240.050781 209.289062 239.160156 208.464844 238.25 C 207.640625 237.339844 206.839844 236.414062 206.0625 235.464844 C 205.28125 234.515625 204.527344 233.546875 203.796875 232.5625 C 203.066406 231.574219 202.359375 230.574219 201.675781 229.550781 C 200.996094 228.53125 200.339844 227.496094 199.707031 226.441406 C 199.078125 225.390625 198.472656 224.320312 197.894531 223.238281 C 197.3125 222.15625 196.761719 221.058594 196.238281 219.949219 C 195.714844 218.839844 195.214844 217.71875 194.746094 216.585938 C 194.277344 215.453125 193.835938 214.304688 193.421875 213.152344 C 193.007812 211.996094 192.621094 210.832031 192.265625 209.65625 C 191.910156 208.480469 191.582031 207.296875 191.285156 206.109375 C 190.984375 204.917969 190.71875 203.71875 190.476562 202.515625 C 190.238281 201.3125 190.027344 200.101562 189.847656 198.890625 C 189.667969 197.675781 189.519531 196.457031 189.398438 195.234375 C 189.277344 194.015625 189.1875 192.789062 189.128906 191.5625 C 189.066406 190.339844 189.035156 189.113281 189.035156 187.882812 C 189.035156 186.65625 189.066406 185.429688 189.128906 184.203125 C 189.1875 182.976562 189.277344 181.753906 189.398438 180.53125 C 189.519531 179.3125 189.667969 178.09375 189.847656 176.878906 C 190.027344 175.664062 190.238281 174.457031 190.476562 173.253906 C 190.71875 172.046875 190.984375 170.851562 191.285156 169.660156 C 191.582031 168.46875 191.910156 167.289062 192.265625 166.113281 C 192.621094 164.9375 193.007812 163.773438 193.421875 162.617188 C 193.835938 161.460938 194.277344 160.316406 194.746094 159.183594 C 195.214844 158.050781 195.714844 156.925781 196.238281 155.816406 C 196.761719 154.707031 197.3125 153.613281 197.894531 152.53125 C 198.472656 151.445312 199.078125 150.378906 199.707031 149.328125 C 200.339844 148.273438 200.996094 147.238281 201.675781 146.214844 C 202.359375 145.195312 203.066406 144.191406 203.796875 143.207031 C 204.527344 142.222656 205.28125 141.253906 206.0625 140.304688 C 206.839844 139.355469 207.640625 138.425781 208.464844 137.515625 C 209.289062 136.609375 210.136719 135.71875 211.003906 134.851562 C 211.871094 133.984375 212.761719 133.136719 213.671875 132.3125 C 214.578125 131.488281 215.507812 130.6875 216.457031 129.910156 C 217.40625 129.128906 218.375 128.375 219.359375 127.644531 C 220.34375 126.914062 221.347656 126.207031 222.367188 125.523438 C 223.390625 124.84375 224.425781 124.1875 225.480469 123.554688 C 226.53125 122.921875 227.601562 122.320312 228.683594 121.738281 C 229.765625 121.160156 230.859375 120.609375 231.96875 120.085938 C 233.078125 119.558594 234.203125 119.0625 235.335938 118.59375 C 236.46875 118.125 237.613281 117.683594 238.769531 117.269531 C 239.925781 116.855469 241.089844 116.46875 242.265625 116.113281 C 243.441406 115.757812 244.621094 115.429688 245.8125 115.132812 C 247.003906 114.832031 248.203125 114.566406 249.40625 114.324219 C 250.609375 114.085938 251.816406 113.875 253.03125 113.695312 C 254.246094 113.515625 255.464844 113.367188 256.6875 113.246094 C 257.90625 113.125 259.132812 113.035156 260.355469 112.972656 C 261.582031 112.914062 262.808594 112.882812 264.035156 112.882812 C 265.265625 112.882812 266.492188 112.914062 267.71875 112.972656 C 268.941406 113.035156 270.167969 113.125 271.386719 113.246094 C 272.609375 113.367188 273.828125 113.515625 275.042969 113.695312 C 276.253906 113.875 277.464844 114.085938 278.667969 114.324219 C 279.871094 114.566406 281.070312 114.832031 282.261719 115.132812 C 283.449219 115.429688 284.632812 115.757812 285.808594 116.113281 C 286.984375 116.46875 288.148438 116.855469 289.304688 117.269531 C 290.460938 117.683594 291.605469 118.125 292.738281 118.59375 C 293.871094 119.0625 294.992188 119.558594 296.105469 120.085938 C 297.214844 120.609375 298.308594 121.160156 299.390625 121.738281 C 300.472656 122.320312 301.542969 122.921875 302.59375 123.554688 C 303.648438 124.1875 304.683594 124.84375 305.703125 125.523438 C 306.726562 126.207031 307.726562 126.914062 308.714844 127.644531 C 309.699219 128.375 310.667969 129.128906 311.617188 129.910156 C 312.566406 130.6875 313.496094 131.488281 314.402344 132.3125 C 315.3125 133.136719 316.203125 133.984375 317.070312 134.851562 C 317.9375 135.71875 318.785156 136.609375 319.609375 137.515625 C 320.433594 138.425781 321.234375 139.355469 322.011719 140.304688 C 322.792969 141.253906 323.546875 142.222656 324.277344 143.207031 C 325.007812 144.191406 325.714844 145.195312 326.398438 146.214844 C 327.078125 147.238281 327.734375 148.273438 328.367188 149.328125 C 328.996094 150.378906 329.601562 151.445312 330.179688 152.53125 C 330.757812 153.613281 331.3125 154.707031 331.835938 155.816406 C 332.359375 156.925781 332.859375 158.050781 333.328125 159.183594 C 333.796875 160.316406 334.238281 161.460938 334.652344 162.617188 C 335.066406 163.773438 335.449219 164.9375 335.808594 166.113281 C 336.164062 167.289062 336.492188 168.46875 336.789062 169.660156 C 337.085938 170.851562 337.355469 172.046875 337.597656 173.253906 C 337.835938 174.457031 338.046875 175.664062 338.226562 176.878906 C 338.40625 178.09375 338.554688 179.3125 338.675781 180.53125 C 338.796875 181.753906 338.886719 182.976562 338.945312 184.203125 C 339.007812 185.429688 339.035156 186.65625 339.035156 187.882812 Z M 339.035156 187.882812 " fill-opacity="1" fill-rule="nonzero"/></g></svg>