<svg xmlns="http://www.w3.org/2000/svg" xmlns:xlink="http://www.w3.org/1999/xlink" width="48" zoomAndPan="magnify" viewBox="0 0 36 36.000001" height="48" preserveAspectRatio="xMidYMid meet" version="1.0"><defs><clipPath id="ec523a16e6"><path d="M 0.488281 15 L 12 15 L 12 27 L 0.488281 27 Z M 0.488281 15 " clip-rule="nonzero"/></clipPath><clipPath id="4f06ba2d25"><path d="M 15 17 L 35.511719 17 L 35.511719 25 L 15 25 Z M 15 17 " clip-rule="nonzero"/></clipPath></defs><path fill="#f89939" d="M 27.351562 24.117188 C 31.628906 19.84375 32.34375 13.621094 28.941406 10.222656 C 25.539062 6.820312 19.316406 7.535156 15.039062 11.808594 C 10.761719 16.082031 12 24.253906 13.453125 25.703125 C 14.625 26.878906 23.078125 28.390625 27.351562 24.117188 Z M 27.351562 24.117188 " fill-opacity="1" fill-rule="nonzero"/><g clip-path="url(#ec523a16e6)"><path fill="#3499cd" d="M 9.800781 17.941406 C 7.320312 15.460938 3.707031 15.046875 1.734375 17.019531 C -0.238281 18.992188 0.175781 22.601562 2.65625 25.078125 C 5.136719 27.5625 9.878906 26.84375 10.722656 26.003906 C 11.40625 25.320312 12.285156 20.417969 9.800781 17.941406 Z M 9.800781 17.941406 " fill-opacity="1" fill-rule="nonzero"/></g><g clip-path="url(#4f06ba2d25)"><path fill="#010101" d="M 34.371094 23.445312 C 34.210938 23.445312 34.132812 23.351562 34.132812 23.15625 C 34.132812 23.011719 34.226562 22.695312 34.417969 22.210938 C 34.691406 21.5 34.832031 20.992188 34.832031 20.683594 C 34.832031 20.496094 34.777344 20.339844 34.667969 20.21875 C 34.558594 20.09375 34.421875 20.03125 34.257812 20.03125 C 34.015625 20.03125 33.742188 20.144531 33.429688 20.371094 C 33.117188 20.597656 32.699219 21.003906 32.167969 21.597656 C 32.246094 21.214844 32.410156 20.6875 32.65625 20.019531 L 31.476562 20.246094 C 31.210938 20.828125 31.015625 21.351562 30.894531 21.816406 C 30.835938 22.042969 30.789062 22.277344 30.761719 22.515625 C 30.390625 22.875 30.148438 23.089844 30.046875 23.167969 C 29.9375 23.25 29.828125 23.289062 29.710938 23.289062 C 29.605469 23.289062 29.519531 23.246094 29.457031 23.167969 C 29.394531 23.085938 29.363281 22.976562 29.363281 22.84375 C 29.363281 22.699219 29.390625 22.53125 29.445312 22.34375 C 29.5 22.15625 29.621094 21.800781 29.8125 21.277344 L 30.257812 20.039062 L 29.820312 20.058594 C 29.417969 20.820312 28.953125 21.230469 28.414062 21.289062 C 28.558594 20.910156 28.632812 20.621094 28.632812 20.417969 C 28.632812 20.160156 28.507812 20.03125 28.257812 20.03125 C 27.957031 20.03125 27.726562 20.171875 27.558594 20.453125 C 27.390625 20.734375 27.304688 21 27.304688 21.25 C 27.304688 21.496094 27.445312 21.671875 27.71875 21.796875 C 27.539062 22.0625 27.335938 22.3125 27.117188 22.546875 C 26.859375 22.804688 26.65625 23 26.507812 23.128906 C 26.355469 23.261719 26.21875 23.328125 26.089844 23.328125 C 25.894531 23.328125 25.796875 23.1875 25.796875 22.914062 C 25.796875 22.636719 25.90625 22.160156 26.125 21.449219 L 26.550781 20.03125 L 26.28125 20.03125 L 25.292969 20.578125 C 25.132812 20.207031 24.847656 20.023438 24.445312 20.023438 C 24.128906 20.023438 23.761719 20.160156 23.34375 20.429688 C 22.929688 20.703125 22.585938 21.054688 22.320312 21.496094 C 22.117188 21.835938 21.988281 22.191406 21.941406 22.558594 C 21.570312 22.929688 21.292969 23.167969 21.105469 23.28125 C 20.910156 23.398438 20.710938 23.453125 20.496094 23.453125 C 19.949219 23.453125 19.613281 23.140625 19.484375 22.511719 C 20.90625 22.09375 21.613281 21.550781 21.613281 20.886719 C 21.613281 20.632812 21.523438 20.429688 21.34375 20.273438 C 21.164062 20.117188 20.921875 20.042969 20.625 20.042969 C 20.046875 20.042969 19.523438 20.320312 19.046875 20.871094 C 18.617188 21.371094 18.386719 21.925781 18.34375 22.539062 C 17.953125 22.921875 17.65625 23.179688 17.464844 23.300781 C 17.269531 23.425781 17.082031 23.488281 16.910156 23.488281 C 16.738281 23.488281 16.601562 23.40625 16.5 23.242188 C 16.394531 23.078125 16.34375 22.859375 16.34375 22.574219 C 16.34375 22.449219 16.359375 22.21875 16.382812 21.882812 C 17.027344 21.183594 17.503906 20.527344 17.804688 19.910156 C 18.109375 19.296875 18.261719 18.65625 18.261719 18 C 18.261719 17.769531 18.230469 17.585938 18.167969 17.449219 C 18.109375 17.3125 18.03125 17.242188 17.941406 17.242188 C 17.921875 17.242188 17.890625 17.25 17.851562 17.261719 L 16.625 17.714844 C 16.203125 18.515625 15.847656 19.386719 15.554688 20.335938 C 15.261719 21.285156 15.113281 22.097656 15.113281 22.773438 C 15.113281 23.222656 15.21875 23.582031 15.429688 23.851562 C 15.640625 24.121094 15.921875 24.253906 16.265625 24.253906 C 16.566406 24.253906 16.878906 24.15625 17.210938 23.964844 C 17.542969 23.773438 17.925781 23.476562 18.367188 23.074219 C 18.808594 22.671875 18.367188 23.070312 18.367188 23.070312 C 18.417969 23.371094 18.542969 23.625 18.742188 23.835938 C 19.011719 24.113281 19.367188 24.257812 19.804688 24.257812 C 20.199219 24.257812 20.554688 24.160156 20.882812 23.96875 C 21.195312 23.785156 21.550781 23.5 21.941406 23.117188 C 21.976562 23.402344 22.070312 23.648438 22.226562 23.859375 C 22.425781 24.125 22.664062 24.257812 22.949219 24.257812 C 23.230469 24.257812 23.519531 24.148438 23.792969 23.929688 C 24.066406 23.710938 24.363281 23.371094 24.683594 22.910156 C 24.65625 23.808594 24.894531 24.257812 25.40625 24.257812 C 25.609375 24.257812 25.820312 24.183594 26.042969 24.039062 C 26.265625 23.890625 26.632812 23.570312 27.152344 23.078125 C 27.597656 22.636719 27.929688 22.21875 28.140625 21.832031 C 28.421875 21.78125 28.683594 21.699219 28.921875 21.574219 C 28.433594 22.339844 28.191406 22.949219 28.191406 23.402344 C 28.191406 23.648438 28.257812 23.855469 28.394531 24.019531 C 28.527344 24.183594 28.695312 24.265625 28.890625 24.265625 C 29.320312 24.265625 29.929688 23.882812 30.71875 23.117188 C 30.71875 23.179688 30.714844 23.234375 30.714844 23.296875 C 30.714844 23.507812 30.734375 23.832031 30.765625 24.265625 L 31.835938 24.015625 C 31.835938 23.726562 31.839844 23.496094 31.847656 23.324219 C 31.867188 23.09375 31.898438 22.839844 31.945312 22.566406 C 31.976562 22.40625 32.050781 22.253906 32.167969 22.109375 L 32.4375 21.792969 C 32.535156 21.679688 32.632812 21.574219 32.71875 21.484375 C 32.816406 21.378906 32.910156 21.289062 32.988281 21.214844 C 33.078125 21.132812 33.15625 21.066406 33.226562 21.023438 C 33.300781 20.980469 33.359375 20.957031 33.402344 20.957031 C 33.484375 20.957031 33.523438 21.007812 33.523438 21.113281 C 33.523438 21.214844 33.449219 21.457031 33.296875 21.835938 C 33.011719 22.546875 32.871094 23.074219 32.871094 23.417969 C 32.871094 23.671875 32.9375 23.875 33.070312 24.027344 C 33.203125 24.179688 33.375 24.257812 33.59375 24.257812 C 34.125 24.257812 34.765625 23.863281 35.507812 23.078125 L 35.507812 22.519531 C 34.980469 23.140625 34.597656 23.453125 34.363281 23.453125 Z M 16.511719 21.175781 C 16.730469 20.109375 16.953125 19.277344 17.183594 18.683594 C 17.410156 18.089844 17.585938 17.792969 17.703125 17.792969 C 17.757812 17.792969 17.804688 17.828125 17.839844 17.902344 C 17.875 17.972656 17.890625 18.070312 17.890625 18.1875 C 17.890625 18.597656 17.765625 19.082031 17.507812 19.648438 C 17.253906 20.210938 16.917969 20.722656 16.511719 21.175781 Z M 19.738281 20.910156 C 19.933594 20.582031 20.132812 20.421875 20.347656 20.421875 C 20.574219 20.421875 20.6875 20.578125 20.6875 20.886719 C 20.6875 21.515625 20.273438 21.941406 19.449219 22.171875 C 19.449219 21.652344 19.542969 21.230469 19.738281 20.910156 Z M 24.519531 22.511719 C 24.238281 23.058594 23.929688 23.335938 23.609375 23.335938 C 23.476562 23.335938 23.367188 23.277344 23.285156 23.171875 C 23.199219 23.066406 23.15625 22.921875 23.15625 22.75 C 23.15625 22.289062 23.300781 21.78125 23.589844 21.234375 C 23.875 20.6875 24.183594 20.414062 24.503906 20.414062 C 24.640625 20.414062 24.75 20.464844 24.828125 20.566406 C 24.90625 20.667969 24.949219 20.8125 24.949219 20.992188 C 24.949219 21.457031 24.804688 21.964844 24.519531 22.511719 Z M 24.519531 22.511719 " fill-opacity="1" fill-rule="nonzero"/></g><path fill="#ffffff" d="M 21.136719 17.753906 C 21.175781 17.8125 21.195312 17.886719 21.195312 17.972656 C 21.195312 18.0625 21.171875 18.140625 21.121094 18.214844 C 21.074219 18.289062 21 18.347656 20.90625 18.390625 C 20.8125 18.429688 20.707031 18.453125 20.589844 18.453125 C 20.390625 18.453125 20.242188 18.410156 20.140625 18.328125 C 20.035156 18.246094 19.96875 18.125 19.941406 17.964844 L 20.199219 17.925781 C 20.210938 18.023438 20.253906 18.105469 20.316406 18.15625 C 20.378906 18.210938 20.472656 18.238281 20.589844 18.238281 C 20.707031 18.238281 20.792969 18.214844 20.851562 18.167969 C 20.910156 18.121094 20.9375 18.0625 20.9375 17.996094 C 20.9375 17.941406 20.910156 17.894531 20.859375 17.859375 C 20.824219 17.839844 20.738281 17.808594 20.597656 17.773438 C 20.40625 17.726562 20.28125 17.6875 20.207031 17.648438 C 20.132812 17.613281 20.078125 17.566406 20.042969 17.503906 C 20.003906 17.441406 19.984375 17.375 19.984375 17.304688 C 19.984375 17.234375 20 17.175781 20.03125 17.117188 C 20.0625 17.058594 20.105469 17.011719 20.15625 16.972656 C 20.199219 16.945312 20.25 16.917969 20.316406 16.902344 C 20.386719 16.882812 20.460938 16.871094 20.539062 16.871094 C 20.65625 16.871094 20.761719 16.886719 20.851562 16.921875 C 20.941406 16.957031 21.007812 17 21.050781 17.0625 C 21.09375 17.121094 21.121094 17.199219 21.140625 17.296875 L 20.886719 17.332031 C 20.875 17.253906 20.84375 17.191406 20.789062 17.148438 C 20.734375 17.101562 20.65625 17.082031 20.554688 17.082031 C 20.4375 17.082031 20.351562 17.101562 20.304688 17.136719 C 20.253906 17.175781 20.226562 17.222656 20.226562 17.277344 C 20.226562 17.308594 20.238281 17.339844 20.257812 17.367188 C 20.28125 17.394531 20.3125 17.414062 20.355469 17.433594 C 20.378906 17.441406 20.457031 17.464844 20.582031 17.5 C 20.765625 17.550781 20.890625 17.585938 20.964844 17.617188 C 21.035156 17.648438 21.09375 17.695312 21.132812 17.75 Z M 22.359375 18.148438 C 22.289062 18.210938 22.207031 18.242188 22.109375 18.242188 C 21.980469 18.242188 21.878906 18.195312 21.804688 18.105469 C 21.726562 18.015625 21.6875 17.863281 21.6875 17.660156 C 21.6875 17.457031 21.726562 17.3125 21.804688 17.222656 C 21.886719 17.132812 21.992188 17.082031 22.121094 17.082031 C 22.207031 17.082031 22.28125 17.109375 22.339844 17.160156 C 22.398438 17.210938 22.441406 17.289062 22.464844 17.390625 L 22.714844 17.351562 C 22.683594 17.199219 22.621094 17.082031 22.515625 17 C 22.410156 16.917969 22.277344 16.875 22.113281 16.875 C 21.980469 16.875 21.863281 16.90625 21.75 16.96875 C 21.640625 17.027344 21.558594 17.121094 21.503906 17.246094 C 21.449219 17.367188 21.421875 17.511719 21.421875 17.675781 C 21.421875 17.925781 21.484375 18.121094 21.613281 18.253906 C 21.738281 18.390625 21.90625 18.457031 22.109375 18.457031 C 22.273438 18.457031 22.414062 18.410156 22.527344 18.308594 C 22.640625 18.210938 22.710938 18.074219 22.738281 17.902344 L 22.488281 17.871094 C 22.46875 17.996094 22.425781 18.089844 22.359375 18.152344 Z M 22.957031 18.417969 L 23.214844 18.417969 L 23.214844 16.90625 L 22.957031 16.90625 Z M 22.957031 16.625 L 23.214844 16.625 L 23.214844 16.328125 L 22.957031 16.328125 Z M 24.800781 16.902344 L 24.46875 16.902344 L 23.863281 17.519531 L 23.863281 16.328125 L 23.605469 16.328125 L 23.605469 18.414062 L 23.863281 18.414062 L 23.863281 17.816406 L 24.042969 17.640625 L 24.542969 18.414062 L 24.859375 18.414062 L 24.222656 17.464844 Z M 25.0625 16.625 L 25.320312 16.625 L 25.320312 16.328125 L 25.0625 16.328125 Z M 25.0625 18.417969 L 25.320312 18.417969 L 25.320312 16.90625 L 25.0625 16.90625 Z M 26.269531 18.1875 C 26.222656 18.191406 26.183594 18.199219 26.15625 18.199219 C 26.121094 18.199219 26.089844 18.191406 26.070312 18.179688 C 26.050781 18.164062 26.035156 18.148438 26.027344 18.128906 C 26.019531 18.105469 26.011719 18.0625 26.011719 17.988281 L 26.011719 17.105469 L 26.269531 17.105469 L 26.269531 16.90625 L 26.011719 16.90625 L 26.011719 16.378906 L 25.757812 16.53125 L 25.757812 16.90625 L 25.570312 16.90625 L 25.570312 17.105469 L 25.757812 17.105469 L 25.757812 17.976562 C 25.757812 18.128906 25.769531 18.230469 25.789062 18.277344 C 25.808594 18.328125 25.84375 18.363281 25.894531 18.390625 C 25.945312 18.421875 26.019531 18.4375 26.109375 18.4375 C 26.167969 18.4375 26.230469 18.425781 26.304688 18.414062 L 26.265625 18.1875 Z M 26.269531 18.1875 " fill-opacity="1" fill-rule="nonzero"/></svg>