<svg xmlns="http://www.w3.org/2000/svg" xmlns:xlink="http://www.w3.org/1999/xlink" width="275" zoomAndPan="magnify" viewBox="0 0 206.25 80.999996" height="108" preserveAspectRatio="xMidYMid meet" version="1.0"><path fill="#115737" d="M 70.808594 58.484375 L 70.160156 57.152344 L 66.460938 57.152344 L 66.460938 54.785156 L 70.0625 54.785156 L 70.0625 53.488281 L 66.460938 53.488281 L 66.460938 51.28125 L 70.128906 51.28125 L 70.777344 49.984375 L 64.9375 49.984375 L 64.9375 58.484375 Z M 59.292969 58.484375 L 59.292969 51.28125 L 61.304688 51.28125 L 61.890625 49.984375 L 55.238281 49.984375 L 55.238281 51.28125 L 57.800781 51.28125 L 57.800781 58.484375 Z M 86.054688 58.484375 L 86.054688 49.984375 L 84.5625 49.984375 L 84.5625 53.457031 L 80.117188 53.457031 L 80.117188 49.984375 L 78.625 49.984375 L 78.625 58.484375 L 80.117188 58.484375 L 80.117188 54.785156 L 84.5625 54.785156 L 84.5625 58.515625 L 86.054688 58.515625 Z M 95.847656 58.484375 L 95.199219 57.183594 L 91.535156 57.183594 L 91.535156 54.816406 L 95.136719 54.816406 L 95.136719 53.519531 L 91.535156 53.519531 L 91.535156 51.316406 L 95.199219 51.316406 L 95.847656 50.015625 L 90.011719 50.015625 L 90.011719 58.515625 L 95.847656 58.515625 Z M 105.96875 58.484375 L 103.894531 55.140625 C 104.898438 54.980469 105.902344 54.167969 105.902344 52.644531 C 105.902344 51.085938 104.800781 49.984375 103.113281 49.984375 L 99.382812 49.984375 L 99.382812 58.484375 L 100.875 58.484375 L 100.875 55.304688 L 102.367188 55.304688 L 104.25 58.484375 Z M 102.921875 54.007812 L 100.875 54.007812 L 100.875 51.316406 L 102.921875 51.316406 C 103.761719 51.316406 104.378906 51.867188 104.378906 52.675781 C 104.378906 53.457031 103.761719 54.007812 102.921875 54.007812 M 115.570312 58.484375 L 114.921875 57.183594 L 111.257812 57.183594 L 111.257812 54.816406 L 114.855469 54.816406 L 114.855469 53.519531 L 111.257812 53.519531 L 111.257812 51.316406 L 114.921875 51.316406 L 115.570312 50.015625 L 109.730469 50.015625 L 109.730469 58.515625 L 115.570312 58.515625 Z M 126.988281 58.484375 L 126.988281 49.984375 L 125.496094 49.984375 L 125.496094 55.886719 L 121.148438 49.984375 L 119.625 49.984375 L 119.625 58.484375 L 121.117188 58.484375 L 121.117188 52.417969 L 125.558594 58.484375 Z M 137.851562 51.183594 C 137.171875 50.4375 136.199219 49.855469 134.804688 49.855469 C 132.339844 49.855469 130.328125 51.574219 130.328125 54.265625 C 130.328125 56.957031 132.339844 58.675781 134.804688 58.675781 C 136.296875 58.675781 137.464844 58.0625 138.308594 57.152344 L 138.308594 53.972656 L 134.902344 53.972656 L 134.902344 55.273438 L 136.816406 55.273438 L 136.816406 56.601562 C 136.425781 56.957031 135.679688 57.378906 134.804688 57.378906 C 133.117188 57.378906 131.886719 56.082031 131.886719 54.296875 C 131.886719 52.515625 133.148438 51.21875 134.804688 51.21875 C 135.679688 51.21875 136.425781 51.640625 136.878906 52.191406 Z M 150.050781 58.484375 L 146.707031 49.984375 L 144.859375 49.984375 L 141.519531 58.484375 L 143.207031 58.484375 L 143.820312 56.859375 L 147.714844 56.859375 L 148.332031 58.484375 Z M 147.292969 55.53125 L 144.242188 55.53125 L 145.769531 51.476562 Z M 164.9375 58.484375 L 167.078125 49.984375 L 165.390625 49.984375 L 164.027344 56.375 L 162.277344 49.984375 L 161.078125 49.984375 L 159.324219 56.375 L 157.964844 49.984375 L 156.308594 49.984375 L 158.449219 58.484375 L 160.039062 58.484375 L 161.695312 52.191406 L 163.347656 58.484375 Z M 177.523438 58.484375 L 174.179688 49.984375 L 172.332031 49.984375 L 168.992188 58.484375 L 170.679688 58.484375 L 171.292969 56.859375 L 175.1875 56.859375 L 175.804688 58.484375 Z M 174.796875 55.53125 L 171.75 55.53125 L 173.273438 51.476562 Z M 187.351562 58.484375 L 183.652344 54.007812 L 187.125 49.984375 L 185.273438 49.984375 L 181.933594 54.039062 L 181.933594 49.984375 L 180.441406 49.984375 L 180.441406 58.484375 L 181.933594 58.484375 L 181.933594 55.757812 L 182.679688 54.882812 L 185.535156 58.484375 Z M 198.214844 58.484375 L 194.875 49.984375 L 193.027344 49.984375 L 189.6875 58.484375 L 191.371094 58.484375 L 191.988281 56.859375 L 195.882812 56.859375 L 196.496094 58.484375 Z M 195.492188 55.53125 L 192.441406 55.53125 L 193.96875 51.476562 Z M 198.636719 44.308594 L 198.636719 28.835938 L 195.328125 28.835938 L 195.328125 38.566406 L 188.128906 28.835938 L 184.722656 28.835938 L 184.722656 44.308594 L 188.03125 44.308594 L 188.03125 34.222656 L 195.460938 44.308594 Z M 70.9375 44.210938 L 74.734375 28.738281 L 71.003906 28.738281 L 68.925781 39.574219 L 65.976562 28.738281 L 63.382812 28.738281 L 60.429688 39.574219 L 58.351562 28.738281 L 54.65625 28.738281 L 58.449219 44.210938 L 61.984375 44.210938 L 64.710938 33.605469 L 67.433594 44.210938 Z M 88.195312 44.339844 L 86.929688 41.453125 L 80.507812 41.453125 L 80.507812 37.917969 L 86.765625 37.917969 L 86.765625 35.03125 L 80.507812 35.03125 L 80.507812 31.757812 L 86.929688 31.757812 L 88.195312 28.867188 L 77.167969 28.867188 L 77.167969 44.339844 Z M 151.734375 31.011719 C 150.503906 29.613281 148.65625 28.511719 145.996094 28.511719 C 141.390625 28.511719 137.625 31.660156 137.625 36.589844 C 137.625 41.488281 141.03125 44.699219 145.605469 44.699219 C 148.460938 44.699219 151.054688 43.53125 152.644531 41.746094 L 152.644531 35.746094 L 145.800781 35.746094 L 145.800781 38.632812 L 149.304688 38.632812 L 149.304688 40.511719 C 148.65625 41.097656 147.355469 41.714844 145.960938 41.714844 C 143.109375 41.714844 141.03125 39.539062 141.03125 36.589844 C 141.03125 33.636719 143.109375 31.464844 145.960938 31.464844 C 147.488281 31.464844 148.71875 32.273438 149.464844 33.246094 Z M 174.085938 44.601562 C 178.789062 44.601562 182.386719 41.257812 182.386719 36.589844 C 182.386719 31.917969 178.949219 28.578125 174.246094 28.578125 C 169.542969 28.578125 166.136719 31.917969 166.136719 36.589844 C 166.105469 41.257812 169.382812 44.601562 174.085938 44.601562 M 174.246094 41.679688 C 171.390625 41.679688 169.542969 39.476562 169.542969 36.621094 C 169.542969 33.734375 171.390625 31.5625 174.246094 31.5625 C 177.101562 31.5625 178.980469 33.703125 178.980469 36.589844 C 178.980469 39.476562 177.101562 41.679688 174.246094 41.679688 M 161.402344 44.308594 L 161.402344 31.757812 L 165.292969 31.757812 L 166.558594 28.867188 L 153.519531 28.867188 L 153.519531 31.757812 L 158.0625 31.757812 L 158.0625 44.308594 Z M 114.566406 28.835938 L 117.871094 28.835938 L 117.871094 44.308594 L 114.566406 44.308594 Z M 99.96875 44.308594 L 99.96875 41.421875 L 94.097656 41.421875 L 94.097656 28.835938 L 90.789062 28.835938 L 90.789062 44.308594 Z M 111.871094 44.308594 L 111.871094 41.421875 L 106 41.421875 L 106 28.835938 L 102.691406 28.835938 L 102.691406 44.308594 Z M 135.195312 44.308594 L 135.195312 28.835938 L 131.886719 28.835938 L 131.886719 38.566406 L 124.683594 28.835938 L 121.277344 28.835938 L 121.277344 44.308594 L 124.585938 44.308594 L 124.585938 34.222656 L 132.015625 44.308594 Z M 83.652344 23.746094 C 85.597656 23.746094 86.996094 22.316406 86.996094 20.371094 C 86.996094 18.425781 85.632812 16.996094 83.652344 16.996094 C 81.675781 16.996094 80.3125 18.425781 80.3125 20.371094 C 80.3125 22.316406 81.707031 23.746094 83.652344 23.746094 M 83.652344 22.738281 C 82.324219 22.738281 81.480469 21.734375 81.480469 20.371094 C 81.480469 19.042969 82.324219 18.003906 83.652344 18.003906 C 84.949219 18.003906 85.828125 19.007812 85.828125 20.371094 C 85.828125 21.734375 84.984375 22.738281 83.652344 22.738281 M 58.679688 23.648438 L 61.011719 17.128906 L 59.714844 17.128906 L 57.964844 22.414062 L 56.210938 17.128906 L 54.914062 17.128906 L 57.25 23.648438 Z M 106.683594 23.648438 L 104.121094 17.128906 L 102.691406 17.128906 L 100.164062 23.648438 L 101.460938 23.648438 L 101.945312 22.382812 L 104.929688 22.382812 L 105.417969 23.648438 Z M 104.574219 21.375 L 102.238281 21.375 L 103.40625 18.261719 Z M 63.316406 17.128906 L 64.453125 17.128906 L 64.453125 23.648438 L 63.316406 23.648438 Z M 71.652344 18.847656 L 72.429688 18.066406 C 71.945312 17.484375 71.199219 17.03125 70.128906 17.03125 C 68.214844 17.03125 66.722656 18.390625 66.722656 20.402344 C 66.722656 22.414062 68.214844 23.777344 70.128906 23.777344 C 71.199219 23.777344 71.910156 23.324219 72.429688 22.738281 L 71.652344 21.960938 C 71.328125 22.414062 70.742188 22.769531 70.128906 22.769531 C 68.832031 22.769531 67.890625 21.796875 67.890625 20.402344 C 67.890625 19.007812 68.863281 18.035156 70.128906 18.035156 C 70.777344 18.035156 71.328125 18.359375 71.652344 18.847656 M 77.199219 23.648438 L 77.199219 18.132812 L 78.753906 18.132812 L 79.175781 17.128906 L 74.085938 17.128906 L 74.085938 18.132812 L 76.0625 18.132812 L 76.0625 23.648438 Z M 94.226562 23.648438 L 92.636719 21.085938 C 93.417969 20.953125 94.195312 20.339844 94.195312 19.171875 C 94.195312 17.96875 93.351562 17.128906 92.054688 17.128906 L 89.199219 17.128906 L 89.199219 23.648438 L 90.335938 23.648438 L 90.335938 21.214844 L 91.46875 21.214844 L 92.929688 23.648438 C 92.929688 23.648438 94.226562 23.648438 94.226562 23.648438 Z M 91.890625 20.207031 L 90.335938 20.207031 L 90.335938 18.132812 L 91.890625 18.132812 C 92.539062 18.132812 92.996094 18.554688 92.996094 19.171875 C 93.027344 19.785156 92.539062 20.207031 91.890625 20.207031 M 96.820312 17.128906 L 97.957031 17.128906 L 97.957031 23.648438 L 96.820312 23.648438 Z M 115.179688 23.746094 C 117.0625 23.746094 118.003906 22.675781 118.003906 21.050781 L 118.003906 17.128906 L 116.835938 17.128906 L 116.835938 21.019531 C 116.835938 22.058594 116.25 22.738281 115.179688 22.738281 C 114.078125 22.738281 113.527344 22.058594 113.527344 21.019531 L 113.527344 17.128906 L 112.359375 17.128906 L 112.359375 21.050781 C 112.359375 22.675781 113.300781 23.746094 115.179688 23.746094 M 126.402344 23.648438 L 126.402344 17.128906 L 125.269531 17.128906 L 125.269531 21.636719 L 121.925781 17.128906 L 120.761719 17.128906 L 120.761719 23.648438 L 121.894531 23.648438 L 121.894531 19.007812 L 125.300781 23.648438 Z M 129.421875 17.128906 L 130.554688 17.128906 L 130.554688 23.648438 L 129.421875 23.648438 Z M 136.847656 23.648438 L 139.183594 17.128906 L 137.886719 17.128906 L 136.132812 22.414062 L 134.382812 17.128906 L 133.085938 17.128906 L 135.421875 23.648438 Z M 146.1875 23.648438 L 145.671875 22.640625 L 142.847656 22.640625 L 142.847656 20.824219 L 145.605469 20.824219 L 145.605469 19.820312 L 142.847656 19.820312 L 142.847656 18.132812 L 145.671875 18.132812 L 146.1875 17.128906 L 141.746094 17.128906 L 141.746094 23.648438 Z M 153.972656 23.648438 L 152.382812 21.085938 C 153.164062 20.953125 153.941406 20.339844 153.941406 19.171875 C 153.941406 17.96875 153.097656 17.128906 151.800781 17.128906 L 148.945312 17.128906 L 148.945312 23.648438 L 150.082031 23.648438 L 150.082031 21.214844 L 151.21875 21.214844 L 152.675781 23.648438 C 152.644531 23.648438 153.972656 23.648438 153.972656 23.648438 Z M 151.636719 20.207031 L 150.082031 20.207031 L 150.082031 18.132812 L 151.636719 18.132812 C 152.289062 18.132812 152.742188 18.554688 152.742188 19.171875 C 152.742188 19.785156 152.289062 20.207031 151.636719 20.207031 M 160.429688 18.683594 L 161.175781 17.90625 C 160.558594 17.320312 159.746094 16.996094 158.742188 16.996094 C 157.316406 16.996094 156.375 17.839844 156.375 18.910156 C 156.375 21.3125 160.167969 20.46875 160.167969 21.832031 C 160.167969 22.253906 159.8125 22.707031 158.871094 22.707031 C 158.027344 22.707031 157.378906 22.347656 156.925781 21.929688 L 156.148438 22.707031 C 156.730469 23.324219 157.605469 23.746094 158.808594 23.746094 C 160.558594 23.746094 161.335938 22.804688 161.335938 21.734375 C 161.335938 19.300781 157.542969 20.046875 157.542969 18.847656 C 157.542969 18.359375 157.964844 18.035156 158.644531 18.035156 C 159.292969 18.035156 159.941406 18.261719 160.429688 18.683594 M 164.027344 17.128906 L 165.164062 17.128906 L 165.164062 23.648438 L 164.027344 23.648438 Z M 170.742188 23.648438 L 170.742188 18.132812 L 172.300781 18.132812 L 172.722656 17.128906 L 167.628906 17.128906 L 167.628906 18.132812 L 169.609375 18.132812 L 169.609375 23.648438 Z M 177.683594 23.648438 L 177.683594 20.953125 L 179.988281 17.160156 L 178.691406 17.160156 L 177.132812 19.949219 L 175.578125 17.160156 L 174.277344 17.160156 L 176.582031 20.953125 L 176.582031 23.648438 Z M 188 23.746094 C 189.945312 23.746094 191.339844 22.316406 191.339844 20.371094 C 191.339844 18.425781 189.976562 16.996094 188 16.996094 C 186.054688 16.996094 184.65625 18.425781 184.65625 20.371094 C 184.691406 22.316406 186.054688 23.746094 188 23.746094 M 188 22.738281 C 186.667969 22.738281 185.824219 21.734375 185.824219 20.371094 C 185.824219 19.042969 186.667969 18.003906 188 18.003906 C 189.296875 18.003906 190.171875 19.007812 190.171875 20.371094 C 190.171875 21.734375 189.328125 22.738281 188 22.738281 M 195.039062 23.648438 L 195.039062 20.824219 L 197.761719 20.824219 L 197.761719 19.820312 L 195.039062 19.820312 L 195.039062 18.132812 L 197.859375 18.132812 L 198.378906 17.128906 L 193.902344 17.128906 L 193.902344 23.648438 Z M 11.222656 48.429688 C 13.136719 48.394531 13.980469 47 15.863281 46.96875 C 17.90625 46.9375 18.847656 48.460938 20.890625 48.460938 C 22.933594 48.460938 23.875 46.96875 25.917969 46.96875 C 27.960938 46.96875 28.902344 48.460938 30.945312 48.460938 C 32.988281 48.460938 33.929688 46.9375 35.972656 46.96875 C 37.886719 47 38.699219 48.429688 40.609375 48.429688 C 40.609375 48.429688 40.609375 48.429688 40.644531 48.429688 C 36.136719 53.324219 28.675781 57.25 25.917969 58.449219 C 23.746094 57.574219 15.503906 53.519531 10.707031 48.296875 C 10.835938 48.363281 11.03125 48.429688 11.222656 48.429688 M 41.648438 38.761719 L 36.621094 43.820312 L 31.59375 38.761719 C 31.59375 38.761719 41.648438 38.761719 41.648438 38.761719 Z M 26.242188 32.988281 L 36.296875 32.988281 L 31.269531 38.046875 C 31.269531 38.082031 26.242188 32.988281 26.242188 32.988281 Z M 30.945312 38.761719 L 25.917969 43.820312 L 20.890625 38.761719 C 20.890625 38.761719 30.945312 38.761719 30.945312 38.761719 Z M 20.890625 27.246094 L 30.945312 27.246094 L 25.917969 32.308594 C 25.917969 32.339844 20.890625 27.246094 20.890625 27.246094 Z M 20.210938 38.761719 L 15.179688 43.820312 L 10.152344 38.761719 Z M 15.539062 32.988281 L 25.59375 32.988281 L 20.566406 38.046875 C 20.535156 38.082031 15.539062 32.988281 15.539062 32.988281 Z M 44.242188 18.847656 L 44.242188 24.070312 L 7.105469 24.070312 L 7.105469 18.847656 Z M 4.023438 15.765625 L 4.023438 41 C 4.023438 52.386719 23.746094 61.144531 25.5625 61.628906 L 26.046875 61.757812 L 26.5 61.5625 C 26.695312 61.46875 47.324219 52.546875 47.324219 41 L 47.324219 15.765625 Z M 4.023438 15.765625 " fill-opacity="1" fill-rule="nonzero"/></svg>