<svg xmlns="http://www.w3.org/2000/svg" xmlns:xlink="http://www.w3.org/1999/xlink" width="304" zoomAndPan="magnify" viewBox="0 0 228 136.499996" height="182" preserveAspectRatio="xMidYMid meet" version="1.0"><path fill="#252f3e" d="M 65.074219 49.617188 C 65.074219 52.382812 65.371094 54.625 65.898438 56.269531 C 66.496094 57.914062 67.242188 59.707031 68.292969 61.648438 C 68.664062 62.246094 68.816406 62.84375 68.816406 63.367188 C 68.816406 64.113281 68.367188 64.863281 67.394531 65.609375 L 62.679688 68.75 C 62.003906 69.195312 61.332031 69.421875 60.734375 69.421875 C 59.984375 69.421875 59.234375 69.046875 58.488281 68.375 C 57.441406 67.253906 56.542969 66.058594 55.792969 64.863281 C 55.042969 63.59375 54.296875 62.171875 53.472656 60.453125 C 47.636719 67.328125 40.300781 70.765625 31.46875 70.765625 C 25.183594 70.765625 20.167969 68.972656 16.5 65.386719 C 12.835938 61.796875 10.964844 57.015625 10.964844 51.039062 C 10.964844 44.6875 13.207031 39.53125 17.773438 35.644531 C 22.339844 31.757812 28.402344 29.816406 36.109375 29.816406 C 38.65625 29.816406 41.273438 30.039062 44.042969 30.414062 C 46.8125 30.789062 49.65625 31.386719 52.648438 32.058594 L 52.648438 26.601562 C 52.648438 20.921875 51.453125 16.960938 49.132812 14.644531 C 46.738281 12.328125 42.695312 11.207031 36.933594 11.207031 C 34.3125 11.207031 31.621094 11.507812 28.851562 12.179688 C 26.082031 12.851562 23.386719 13.675781 20.765625 14.722656 C 19.570312 15.246094 18.671875 15.542969 18.148438 15.691406 C 17.625 15.84375 17.25 15.917969 16.949219 15.917969 C 15.902344 15.917969 15.378906 15.167969 15.378906 13.601562 L 15.378906 9.9375 C 15.378906 8.742188 15.527344 7.847656 15.902344 7.324219 C 16.277344 6.800781 16.949219 6.277344 18 5.753906 C 20.617188 4.410156 23.761719 3.289062 27.429688 2.390625 C 31.09375 1.417969 34.988281 0.972656 39.105469 0.972656 C 48.007812 0.972656 54.519531 2.988281 58.710938 7.023438 C 62.828125 11.058594 64.921875 17.1875 64.921875 25.40625 L 64.921875 49.617188 Z M 34.6875 60.976562 C 37.15625 60.976562 39.703125 60.527344 42.398438 59.632812 C 45.089844 58.734375 47.484375 57.089844 49.507812 54.847656 C 50.703125 53.429688 51.601562 51.859375 52.050781 50.066406 C 52.5 48.273438 52.800781 46.105469 52.800781 43.566406 L 52.800781 40.425781 C 50.628906 39.902344 48.308594 39.457031 45.914062 39.15625 C 43.519531 38.859375 41.199219 38.707031 38.878906 38.707031 C 33.863281 38.707031 30.199219 39.679688 27.726562 41.695312 C 25.257812 43.714844 24.058594 46.554688 24.058594 50.289062 C 24.058594 53.804688 24.957031 56.417969 26.828125 58.210938 C 28.625 60.078125 31.246094 60.976562 34.6875 60.976562 Z M 94.785156 69.046875 C 93.4375 69.046875 92.539062 68.824219 91.941406 68.300781 C 91.34375 67.851562 90.820312 66.804688 90.371094 65.386719 L 72.78125 7.621094 C 72.332031 6.128906 72.109375 5.15625 72.109375 4.632812 C 72.109375 3.4375 72.707031 2.765625 73.90625 2.765625 L 81.238281 2.765625 C 82.660156 2.765625 83.632812 2.988281 84.15625 3.511719 C 84.757812 3.960938 85.207031 5.007812 85.65625 6.425781 L 98.226562 55.894531 L 109.902344 6.425781 C 110.277344 4.933594 110.726562 3.960938 111.324219 3.511719 C 111.925781 3.0625 112.972656 2.765625 114.320312 2.765625 L 120.304688 2.765625 C 121.726562 2.765625 122.703125 2.988281 123.300781 3.511719 C 123.898438 3.960938 124.421875 5.007812 124.722656 6.425781 L 136.546875 56.492188 L 149.496094 6.425781 C 149.945312 4.933594 150.46875 3.960938 150.992188 3.511719 C 151.589844 3.0625 152.5625 2.765625 153.910156 2.765625 L 160.871094 2.765625 C 162.066406 2.765625 162.742188 3.363281 162.742188 4.632812 C 162.742188 5.007812 162.667969 5.378906 162.589844 5.828125 C 162.515625 6.277344 162.367188 6.875 162.066406 7.695312 L 144.03125 65.460938 C 143.582031 66.953125 143.058594 67.925781 142.460938 68.375 C 141.859375 68.824219 140.886719 69.121094 139.617188 69.121094 L 133.179688 69.121094 C 131.757812 69.121094 130.785156 68.898438 130.183594 68.375 C 129.585938 67.851562 129.0625 66.878906 128.761719 65.386719 L 117.164062 17.1875 L 105.636719 65.3125 C 105.261719 66.804688 104.8125 67.777344 104.214844 68.300781 C 103.617188 68.824219 102.570312 69.046875 101.222656 69.046875 Z M 190.957031 71.066406 C 187.066406 71.066406 183.171875 70.617188 179.429688 69.71875 C 175.6875 68.824219 172.769531 67.851562 170.824219 66.730469 C 169.625 66.058594 168.804688 65.3125 168.503906 64.636719 C 168.203125 63.964844 168.054688 63.21875 168.054688 62.546875 L 168.054688 58.734375 C 168.054688 57.164062 168.652344 56.417969 169.777344 56.417969 C 170.226562 56.417969 170.675781 56.492188 171.125 56.640625 C 171.574219 56.792969 172.246094 57.089844 172.996094 57.390625 C 175.539062 58.511719 178.308594 59.40625 181.226562 60.003906 C 184.222656 60.601562 187.140625 60.902344 190.132812 60.902344 C 194.847656 60.902344 198.515625 60.078125 201.058594 58.4375 C 203.605469 56.792969 204.953125 54.402344 204.953125 51.335938 C 204.953125 49.246094 204.277344 47.527344 202.929688 46.105469 C 201.585938 44.6875 199.039062 43.414062 195.371094 42.21875 L 184.519531 38.859375 C 179.058594 37.140625 175.015625 34.597656 172.546875 31.234375 C 170.074219 27.949219 168.804688 24.285156 168.804688 20.398438 C 168.804688 17.261719 169.476562 14.496094 170.824219 12.105469 C 172.171875 9.714844 173.96875 7.621094 176.210938 5.976562 C 178.457031 4.257812 181.003906 2.988281 183.996094 2.09375 C 186.988281 1.195312 190.132812 0.820312 193.425781 0.820312 C 195.074219 0.820312 196.792969 0.898438 198.441406 1.121094 C 200.160156 1.34375 201.734375 1.644531 203.304688 1.941406 C 204.800781 2.316406 206.222656 2.691406 207.570312 3.136719 C 208.917969 3.585938 209.964844 4.035156 210.714844 4.484375 C 211.761719 5.082031 212.511719 5.679688 212.960938 6.351562 C 213.410156 6.949219 213.632812 7.773438 213.632812 8.816406 L 213.632812 12.328125 C 213.632812 13.898438 213.035156 14.722656 211.914062 14.722656 C 211.3125 14.722656 210.339844 14.421875 209.066406 13.824219 C 204.800781 11.882812 200.011719 10.910156 194.699219 10.910156 C 190.433594 10.910156 187.066406 11.582031 184.746094 13.003906 C 182.425781 14.421875 181.226562 16.589844 181.226562 19.652344 C 181.226562 21.746094 181.976562 23.539062 183.472656 24.957031 C 184.96875 26.378906 187.738281 27.796875 191.703125 29.070312 L 202.332031 32.429688 C 207.722656 34.148438 211.613281 36.542969 213.933594 39.605469 C 216.253906 42.667969 217.375 46.179688 217.375 50.066406 C 217.375 53.28125 216.703125 56.195312 215.429688 58.734375 C 214.082031 61.277344 212.285156 63.515625 209.964844 65.3125 C 207.644531 67.179688 204.878906 68.523438 201.660156 69.496094 C 198.289062 70.542969 194.773438 71.066406 190.957031 71.066406 Z M 190.957031 71.066406 " fill-opacity="1" fill-rule="nonzero"/><path fill="#ff9900" d="M 205.101562 107.382812 C 180.480469 125.539062 144.703125 135.179688 113.945312 135.179688 C 70.835938 135.179688 31.992188 119.261719 2.65625 92.808594 C 0.335938 90.71875 2.429688 87.878906 5.199219 89.523438 C 36.933594 107.90625 76.074219 119.039062 116.5625 119.039062 C 143.882812 119.039062 173.894531 113.359375 201.507812 101.703125 C 205.625 99.835938 209.144531 104.394531 205.101562 107.382812 Z M 205.101562 107.382812 " fill-opacity="1" fill-rule="evenodd"/><path fill="#ff9900" d="M 215.355469 95.722656 C 212.210938 91.6875 194.550781 93.78125 186.539062 94.753906 C 184.144531 95.050781 183.773438 92.960938 185.941406 91.390625 C 200.011719 81.527344 223.136719 84.367188 225.832031 87.652344 C 228.527344 91.015625 225.085938 114.105469 211.910156 125.167969 C 209.890625 126.886719 207.945312 125.988281 208.84375 123.746094 C 211.835938 116.347656 218.5 99.683594 215.355469 95.722656 Z M 215.355469 95.722656 " fill-opacity="1" fill-rule="evenodd"/></svg>