<svg xmlns="http://www.w3.org/2000/svg" xmlns:xlink="http://www.w3.org/1999/xlink" width="50" zoomAndPan="magnify" viewBox="0 0 37.5 37.499999" height="50" preserveAspectRatio="xMidYMid meet" version="1.0"><defs><clipPath id="596acb06db"><path d="M 0 0 L 37.007812 0 L 37.007812 37.007812 L 0 37.007812 Z M 0 0 " clip-rule="nonzero"/></clipPath></defs><g clip-path="url(#596acb06db)"><path fill="#ffffff" d="M 0 0 L 37.007812 0 L 37.007812 37.007812 L 0 37.007812 Z M 0 0 " fill-opacity="1" fill-rule="nonzero"/><path fill="#ffffff" d="M 0 0 L 37.007812 0 L 37.007812 37.007812 L 0 37.007812 Z M 0 0 " fill-opacity="1" fill-rule="nonzero"/></g><path fill="#000000" d="M 36.804688 8.140625 L 36.175781 8.140625 C 35.398438 8.140625 34.667969 8.503906 34.191406 9.121094 L 27.753906 17.542969 L 21.316406 9.121094 C 20.84375 8.503906 20.109375 8.140625 19.332031 8.140625 L 18.703125 8.140625 L 26.824219 18.757812 L 18.53125 29.605469 L 19.160156 29.605469 C 19.9375 29.605469 20.667969 29.242188 21.140625 28.625 L 27.753906 19.976562 L 34.367188 28.625 C 34.839844 29.242188 35.574219 29.605469 36.351562 29.605469 L 36.980469 29.605469 L 28.6875 18.757812 Z M 15.757812 25.34375 C 13.867188 28.214844 10.144531 29.6875 6.585938 28.390625 C 3.457031 27.246094 1.480469 24.136719 1.480469 20.804688 L 1.480469 19.984375 L 18.503906 19.984375 L 18.503906 16.925781 C 18.503906 12.109375 14.9375 7.894531 10.144531 7.445312 C 4.644531 6.925781 0 11.257812 0 16.652344 L 0 20.777344 C 0 24.753906 2.378906 28.449219 6.121094 29.792969 C 11.007812 31.554688 16.148438 28.929688 17.886719 24.425781 L 17.414062 24.425781 C 16.738281 24.425781 16.125 24.78125 15.757812 25.34375 Z M 1.480469 16.652344 C 1.480469 12.367188 4.964844 8.882812 9.25 8.882812 C 13.535156 8.882812 17.023438 12.367188 17.023438 16.652344 L 17.023438 18.503906 L 1.480469 18.503906 Z M 1.480469 16.652344 " fill-opacity="1" fill-rule="nonzero"/></svg>