<svg xmlns="http://www.w3.org/2000/svg" xmlns:xlink="http://www.w3.org/1999/xlink" width="100" zoomAndPan="magnify" viewBox="0 0 75 74.999997" height="100" preserveAspectRatio="xMidYMid meet" version="1.0"><defs><clipPath id="cd4dbfa9fb"><path d="M 13.238281 13.238281 L 60 13.238281 L 60 61.988281 L 13.238281 61.988281 Z M 13.238281 13.238281 " clip-rule="nonzero"/></clipPath></defs><rect x="-7.5" width="90" fill="#ffffff" y="-7.5" height="89.999996" fill-opacity="1"/><rect x="-7.5" width="90" fill="#ffffff" y="-7.5" height="89.999996" fill-opacity="1"/><g clip-path="url(#cd4dbfa9fb)"><path fill="#ffffff" d="M 16.171875 15.339844 L 43.144531 13.347656 C 46.460938 13.0625 47.308594 13.253906 49.394531 14.769531 L 58.003906 20.835938 C 59.425781 21.878906 59.898438 22.164062 59.898438 23.300781 L 59.898438 56.566406 C 59.898438 58.652344 59.140625 59.886719 56.488281 60.074219 L 25.164062 61.972656 C 23.175781 62.066406 22.230469 61.78125 21.1875 60.453125 L 14.847656 52.207031 C 13.707031 50.691406 13.238281 49.554688 13.238281 48.226562 L 13.238281 18.65625 C 13.238281 16.949219 13.996094 15.527344 16.171875 15.339844 Z M 16.171875 15.339844 " fill-opacity="1" fill-rule="nonzero"/><path fill="#000000" d="M 43.144531 13.347656 L 16.171875 15.339844 C 13.996094 15.527344 13.238281 16.949219 13.238281 18.65625 L 13.238281 48.226562 C 13.238281 49.554688 13.707031 50.691406 14.847656 52.207031 L 21.1875 60.453125 C 22.230469 61.78125 23.175781 62.066406 25.164062 61.972656 L 56.492188 60.074219 C 59.140625 59.886719 59.898438 58.652344 59.898438 56.566406 L 59.898438 23.300781 C 59.898438 22.222656 59.472656 21.910156 58.21875 20.992188 L 49.394531 14.769531 C 47.3125 13.253906 46.460938 13.0625 43.144531 13.347656 Z M 25.875 22.753906 C 23.316406 22.925781 22.734375 22.964844 21.28125 21.785156 L 17.589844 18.847656 C 17.214844 18.46875 17.402344 17.992188 18.347656 17.898438 L 44.28125 16.003906 C 46.457031 15.8125 47.589844 16.570312 48.441406 17.234375 L 52.890625 20.457031 C 53.082031 20.554688 53.554688 21.121094 52.984375 21.121094 L 26.203125 22.734375 Z M 22.890625 56.285156 L 22.890625 28.042969 C 22.890625 26.808594 23.269531 26.238281 24.402344 26.144531 L 55.164062 24.34375 C 56.207031 24.25 56.675781 24.910156 56.675781 26.144531 L 56.675781 54.195312 C 56.675781 55.429688 56.488281 56.472656 54.785156 56.566406 L 25.351562 58.273438 C 23.648438 58.367188 22.890625 57.800781 22.890625 56.285156 Z M 51.945312 29.554688 C 52.136719 30.410156 51.945312 31.261719 51.09375 31.359375 L 49.675781 31.640625 L 49.675781 52.492188 C 48.441406 53.15625 47.308594 53.535156 46.359375 53.535156 C 44.847656 53.535156 44.46875 53.058594 43.332031 51.640625 L 34.058594 37.042969 L 34.058594 51.164062 L 36.992188 51.828125 C 36.992188 51.828125 36.992188 53.535156 34.625 53.535156 L 28.097656 53.914062 C 27.90625 53.535156 28.097656 52.585938 28.757812 52.398438 L 30.460938 51.925781 L 30.460938 33.253906 L 28.097656 33.0625 C 27.90625 32.210938 28.378906 30.976562 29.707031 30.882812 L 36.710938 30.410156 L 46.363281 45.195312 L 46.363281 32.117188 L 43.902344 31.832031 C 43.710938 30.789062 44.46875 30.027344 45.414062 29.9375 Z M 51.945312 29.554688 " fill-opacity="1" fill-rule="evenodd"/></g></svg>